/* XPM */
static char *result[] = {
/* columns rows colors chars-per-pixel */
"64 64 105 2 ",
"   c #040201",
".  c #0C0603",
"X  c #0E0806",
"o  c #0B0808",
"O  c #110702",
"+  c #140A04",
"@  c #1C0D05",
"#  c #160F0A",
"$  c #1E1107",
"%  c #1A110C",
"&  c #210F05",
"*  c #231106",
"=  c #2C1506",
"-  c #291807",
";  c #241409",
":  c #2B1609",
">  c #261809",
",  c #2C1A0B",
"<  c #341907",
"1  c #391C07",
"2  c #301708",
"3  c #331B0A",
"4  c #3B1E0A",
"5  c #241710",
"6  c #261912",
"7  c #2B1D13",
"8  c #35210D",
"9  c #3C220E",
"0  c #322117",
"q  c #3A2314",
"w  c #352318",
"e  c #291D2B",
"r  c #411F09",
"t  c #44220C",
"y  c #4C260D",
"u  c #4E280E",
"i  c #50270D",
"p  c #53290E",
"a  c #5B2D0F",
"s  c #442410",
"d  c #482711",
"f  c #462B11",
"g  c #4B2B12",
"h  c #542D14",
"j  c #5C2E10",
"k  c #513114",
"l  c #5B3217",
"z  c #5B3817",
"x  c #5F3518",
"c  c #602F0F",
"v  c #61300F",
"b  c #612F10",
"n  c #643211",
"m  c #6F3712",
"M  c #6D3814",
"N  c #623518",
"B  c #653C1A",
"V  c #6C3B1C",
"C  c #703712",
"Z  c #723914",
"A  c #793E17",
"S  c #723E1D",
"D  c #7B3F18",
"F  c #67401A",
"G  c #6C431C",
"H  c #7A4017",
"J  c #74421E",
"K  c #7C421B",
"L  c #76491F",
"P  c #7D4520",
"I  c #7B4B20",
"U  c #4F1D4C",
"Y  c #781D4F",
"T  c #83451C",
"R  c #85491C",
"E  c #88491F",
"W  c #814721",
"Q  c #844922",
"!  c #8C4D23",
"~  c #914E23",
"^  c #845322",
"/  c #8D5325",
"(  c #945226",
")  c #995527",
"_  c #945C26",
"`  c #9B5A26",
"'  c #975428",
"]  c #9D5729",
"[  c #9E5829",
"{  c #A25C2A",
"}  c #A5612B",
"|  c #AA652D",
" . c #A7682D",
".. c #AE6A2E",
"X. c #B16D2F",
"o. c #B5712F",
"O. c #B46F30",
"+. c #B57130",
"@. c #B87330",
"#. c #E64539",
"$. c #AD2F45",
"%. c #F45E53",
"&. c #FF8933",
"*. c #FFC2A1",
"=. c None",
/* pixels */
"=.=.=.=.=.=.=.=.=.=.=.=.    . + $ + * 8 f 8 > > 3 8 8 8 X       =.=.=.=.=.=.=.=.=.=.=.. . . O $ 8 8 f k g f q 8 9 ,   =.=.=.=.=.",
"=.=.=.=.=.=.=.=.=.=.    $ g L L J G z k f f k u f f &.k k U Y #.#.Y U B =.&.=.=.+ > 9 F G L I L ^ ^ I L G P L I I G l 4 + =.=.=.",
"=.O @ ; & #   =.=.    $ L ..o.@.X.X.X.X...X.X.X.o...&.#.U Y #.%.%.#.Y U #.&.  - G _  .o.o.o.o.o...| } [ { { ] ] ] ] ] ( B : =.=.",
"$ N P Q Q S q .   # + B X...{ { { ] ] ` ( _ ` { U Y Y U Y $.#.%.%.#.$.Y U U Y U o.o.X.|  .{ { ] ] ] ] ` ] ] [ ] ] ] ] ] ] V : =.",
"s ( [ ] ] ' Q g ; q + V ..| ] ] ] } ] K C M U Y %.#.%.#.U Y #.%.%.#.Y U %.#.%.#.Y U { ] ] ] ] ] ] ] ] [ ] ] ] ) ] ] ] ] [ ' d : ",
"3 / [ [ } } [ / g , + s ` { ] ] | +...K m U Y %.#.#.#.#.%.U $.#.#.$.U %.#.#.#.#.%.Y Y *.*.] ] ] ] ] ] ] ] ] ( T ! ] ] ] ] [ S ; ",
"; Q { ..O.+.O.O.[ k + + P ] ] ] O.+.*.*.m Y U Y U Y U Y #.Y Y #.#.Y %.#.Y U Y U Y U *.&.&.] ] ] ] ] ] ] [ ) K m C ~ ] ] ] { Q 7 ",
"# V } O.O.O.+.+.@.` g . g ) ] { ..@.&.&.*.U #.%.%.%.%.$.U Y U $.$.U #.U $.#.%.%.%.#.U #.] ] ] ] ] ] ] ] ] ! Z Z C T ] ] ] ] V @ ",
"o g  .o...| X.X.@. .H 9 @ K ] ] ..@.+.#.Y %.%.%.%.#.%.#.%.U e Y Y e U Y %.#.%.#.%.%.%.Y ] ] ] ] { ' { ] ~ A m m C D ] ] { ! 3 4 ",
"=.3  .o.) T H T Q H C a @ V ] ] | +.+.U %.#.%.#.$.$.$.#.#.$.U e e U Y $.#.$.$.$.$.%.#.%.U ] ] ] ' { ' ~ A C m C C Z ' ] ~ s q ! ",
"=.,  .{ Z m m m M m m 4 t ( ] ] { @.@.$.#.#.$.Y Y U Y U Y Y U e e U Y Y U Y U Y Y $.#.#.$.) ] ] ] ( W Z m m m m C Z ~ ' h 3 Q ] ",
"=.$ Q K m m m m M m 4 @ P ] ] ] ] ..Y #.%.$.Y U U $.%.%.#.U U Y Y U U #.%.%.$.U U Y $.%.#.U R ( ! A m m m m C m C Z ~ V & J ] ] ",
"=.@ l C m m m m Z p + h ' [ [ [ ] { U %.#.Y U $.#.%.%.#.$.U Y $.$.Y U $.#.#.%.#.Y U Y $.#.U C C C C C C C m m m C D P : l ' { ] ",
"=.; u C C m C C c & 9 ! ` ) ] ] ] ] Y #.$.U $.#.%.%.#.$.U Y $.#.#.Y Y U $.#.#.%.#.Y U Y $.*.C M C C m C m m C m C Z s , ! ] ] ] ",
"=.; 8 m m m C c 2 < m A Q ' ] ] ] ] U $.Y U $.#.%.#.$.$.U Y $.#.#.$.Y U Y #.#.#.%.$.U Y $.&.*.M m m C m C m C C C j & l ' ] ] ] ",
"=.=.: 9 i r 4 & @ c C C C A ! ) ] ) Y $.U $.$.%.%.#.$.U Y $.$.#.%.$.$.Y U $.#.#.%.#.Y U Y #.&.*.C m C m m m C C C y @ W { ] ] ] ",
"=.=.9 : + . O # 4 m C m m C C T ( ] U $.U $.#.%.%.$.$.U Y $.#.%.%.#.$.Y U $.$.#.%.#.$.U Y U C C m m C m C m C C C y @ W { ] ] ] ",
"=.=.+ 8 l d + + y M m m C C C C A E *.U Y $.$.%.#.$.Y U Y $.$.#.#.#.$.Y U Y $.#.#.%.#.Y U e C C m C m m m C m m Z r   s ~ { ] ] ",
"=.. 8 ! ] / 3 + r m m m C C C M m *.&.U Y $.%.%.#.$.Y U Y $.$.#.%.#.$.U *.$.$.#.#.%.#.Y U U v v j p r r y p b b j & : & N ' ] ] ",
". ; Q { ] [ V @ 3 m m m C M C C *.&.#.e Y #.%.%.#.$.Y e Y $.#.%.%.$.$.U &.*.$.$.#.%.$.Y U e : : 2 3 2 * & & * * : 3 P N & W { ] ",
". h ] ] { | [ N ; p C m m C C m m m e U Y $.%.#.#.$.Y U Y $.$.%.#.#.$.e #.U $.$.%.%.#.Y U e n J P P W W Q Q W W W ! ] ! 4 s ' { ",
"+ J { ] | O.| ' h @ a m m m m m m m e U Y #.%.%.$.$.Y e Y $.#.#.%.$.$.Y e Y $.#.#.%.$.Y U U ] ] ] { ] ] { { ] { ] { ] { J & V ] ",
"& ! { ] | +...' ! t = c C m C m m m U U Y #.%.#.$.$.Y U Y $.$.#.%.$.$.Y e Y $.$.#.%.#.Y U e ` { } O.} { ] ] ] ] ] ] ] ] ' l : P ",
"; ! ] { | +...T ( Q = < n C m m C m e U Y $.%.%.#.$.Y *.U $.$.%.%.$.$.Y U Y $.#.#.%.#.Y U *.` } O.O.O.O.} { ] ] ] ] ] ] ] Q * j ",
"; ! { ] | @.O.K H ] K * t m C C M m U U Y $.%.#.$.$.*.&.U $.#.#.%.#.$.Y e Y $.$.%.%.$.Y U %.*. .+.+.+.+.O.{ ] ] ] ] ] ] ] ' s t ",
"& / ] ] | +.+.T M ! ] V & y m m C C e U Y #.%.%.$.$.Y #.U $.#.%.#.#.$.Y U Y $.$.#.%.#.Y U #.&.*.+.+.+.+.O.| ] ] ] { ] ] ] { N : ",
"% ~ ] ] | @.o.R m T ] ) l & b Z C m U U Y #.%.#.#.$.Y e Y $.#.#.%.#.$.Y e Y $.#.%.%.$.Y U e ` ..+.+.O.+.O.O.{ ] ] ] ] ] ] [ S @ ",
"@ ! ] ] } @.o.R m Z ' ] ~ s 3 n m m e U Y $.%.#.$.$.Y e Y $.$.#.%.$.$.Y U Y $.$.#.%.$.Y U 7 } o.+.+.O.O.O.O.{ [ ] ] ] ] ] ] ! : ",
"& ! ] ' { O.O.R m m E ] ] Q 3 t m m U U Y #.%.#.#.$.Y U Y $.$.%.%.#.$.Y e Y $.#.%.%.#.Y U U } +.+.+.+.+.O.O.{ [ ] ] ] ] ] ] ] h ",
"+ S { ] { O.O.K m m D ] ] ] S : y m *.U Y $.%.#.$.$.Y e Y $.$.#.%.$.$.U *.Y $.#.#.%.$.Y U e | O.+.+.+.+.@.O.{ [ ] ] ] ] ] ] ] P ",
"=.s ' ] { O.{ A m m D ) ] ] ' V > *.&.U Y #.%.%.$.$.Y U Y $.#.%.#.$.$.U &.*.$.$.#.%.%.Y U U ..O.O.+.+.+.O.O.| ] ] ] ] ] ] ] ] ] ",
"=.5 ~ { [ } { ~ K D ~ ] { { ] ' *.&.#.U Y #.%.#.$.$.Y e Y $.$.#.%.$.$.e #.Y $.$.#.%.$.Y U U O.+.O.+.+.+.@.@.| ] ] ] ] ] ] ] ] ] ",
"=.o V { ] ] ] ] ] ) ] { X.X.| ] ' l e U Y $.%.#.#.$.Y U Y $.$.%.#.$.$.Y e Y $.#.#.%.#.Y U e ..o.o.X.o.X.X.X.{ ] ] ] ] ] ] ] ] ( ",
"=.o 3 ! ] ] ] ] ] ] ] ..+.@.+.} [ ~ e U Y $.%.%.$.$.Y e Y $.#.%.#.#.$.Y e Y $.$.#.%.#.Y U U { { { { { { ] ] ] ] ] ] ] ] ] ] ) T ",
"=.=.: Z ~ ] ] ] ] ] ] ..+.+.+.O.} [ U U Y #.%.#.#.$.Y U Y $.#.%.%.$.$.Y U Y $.#.%.%.$.Y U e ` ] ] ] ] ] ] { ] ] ] { ] { ] { ~ C ",
"=.=.: m A ) ] ] ] ] ] ..+.+.+.O.O.{ e U Y #.%.%.#.$.Y *.U $.$.#.%.#.$.Y e $.$.$.#.%.$.Y U *.] ] ] { ] ~ ! E E ! ! E E E T T Z C ",
"=.=.4 Z m A ( ] ] ] [ } O.@.O.@.O.{ e U Y $.%.#.$.$.*.&.U $.#.%.#.$.$.Y U Y $.#.#.%.#.Y U &.*.] ] ) E Z C C m m m C C m C C C C ",
"=.. 4 Z m m A ! ] ] [ [ } | O.O.O.[ e U Y $.%.%.$.$.Y #.e $.$.%.#.#.$.Y e $.$.#.%.%.$.Y U #.&.*.) ! C C C C C m m m m m C C m m ",
"=.. t Z m C C Z ! ) ] ] ] ] { { [ [ U U Y #.%.%.#.$.Y e Y $.#.#.%.$.Y Y U Y $.$.#.%.#.Y U e ] ] ~ A C m m m m m m C C m C C m b ",
"  O j Z m C C m m Z ! ' ] ] ] ] [ [ e U Y $.%.#.$.$.Y e Y #.#.%.#.#.$.Y e Y $.#.%.%.$.Y U e ] ( A C C m m C m C m m m m C C p : ",
"+ d m m m m m m C m m Z Q ) ] ] [ [ e U Y #.%.%.#.$.Y U Y $.#.%.%.$.$.Y U Y $.$.#.%.#.Y U U ( A m C C m m m m C C m C m C a @ 2 ",
"@ j C m m m m m C m C m Z D ~ ] ' ! *.U Y $.%.#.$.$.Y e Y $.$.%.#.$.$.U *.Y $.$.#.%.#.Y U e Z m m C M m m C m m m m m C n = = c ",
". r C m m m m C m m m C C C Z D D *.&.U Y #.%.%.$.$.Y U Y $.#.%.%.$.$.U &.*.$.#.%.%.$.Y U e m m C m C m C M m m C C m C a @ i C ",
"=.: m m m C m m C m m C C C C m *.&.#.U Y $.%.#.#.$.Y e Y $.#.#.%.#.$.e #.Y $.$.#.%.#.Y U U m m m m m m C C C m m m m C a & b C ",
"=.O a C C M C C m m m m m m m m m m e U Y $.%.%.$.$.Y U Y $.#.%.%.#.$.U U Y $.$.#.%.#.Y U e m m C C m m C m m m C C C C h O 4 m ",
"=.  t C m m m m C m C m m m m Z Z m e U Y #.%.#.#.$.Y e Y $.#.#.%.#.$.Y e Y $.$.%.%.$.Y U U m m m m C M m m m C m C C C y   O p ",
"=.=.1 C m m m m m m m m m C m m m m U U Y #.%.#.$.$.Y U Y $.$.#.%.$.$.Y e Y $.$.#.%.$.Y U e a m C C C C m m C m C m C C t   % : ",
"=.=.* c a v m m m m m Z m m m m m m e U Y $.%.%.#.$.Y *.Y $.#.#.%.#.$.Y U Y $.$.%.%.#.Y U *.+ * 4 y a v n m m m m m C n 1 . 0 # ",
"=.=.  * 8 4 y M m m C m m m m C C m U U Y #.%.%.$.$.*.&.U $.$.%.#.#.$.Y e Y $.#.#.%.$.Y U &.*.< < & @ * = < 4 t y p i 1 @ O 0 7 ",
"=.  @ J ' Q 3 t m m m m C m m m m m e U Y #.%.#.#.$.Y #.e $.#.%.%.#.$.Y e Y $.$.%.%.#.Y U #.&.*.m v p y 9 1 < : * * * 2 y < 5 w ",
"=.  d { ) ] V & h m m m m m C m C m e U Y $.%.%.$.$.Y e Y $.$.%.#.$.$.Y U Y $.$.%.%.$.Y U e C C m m C C m m m v m v m n C p + w ",
"=.  h { ] ] ( d & j C m C C m m m m U U Y #.%.#.#.$.Y e Y $.$.#.%.#.$.Y e $.$.$.#.%.#.Y U e C C m C m C m m m M m m m m C n ; 6 ",
"=.o l ] ) T A N * 3 m m m C m M C m e U Y #.%.#.#.$.Y U Y $.#.#.#.$.$.Y U Y $.#.#.%.$.Y U U C C C m M C m C A A K T T Z C M 4 $ ",
". q m ! T C m n = @ v C m m C C m m *.U Y $.#.%.#.$.Y e Y $.#.%.%.$.$.U *.Y $.#.%.#.#.Y U e ~ ~ R K T R ! ( ` } { { .. .` A 4 + ",
"+ j Z C m m m m p . y m m m m C m *.&.U Y $.#.%.#.$.Y U Y $.$.%.%.$.$.U &.*.$.#.%.#.$.Y U e | O.o.X.X.o.o.o.o.o.+.+.@.@.@.K @ * ",
"O j C C Z m m m i O * n m m m m *.&.#.U Y $.$.#.#.$.Y e Y $.$.#.#.$.$.Y #.Y $.#.#.$.Y Y U e @.O.o.o.o.o.o.o.o.o.+.+.O.| / 3 y n ",
"O v C m C C m m 4 O O 4 y y p y r 3 U e U Y $.$.$.$.Y e Y $.#.%.#.#.$.Y e Y $.#.#.$.Y U e U @.@.O.O.........| | | { { ! s i C C ",
"O a C C C C c r @ : * @ @ @ & ; 2 r a e e U Y Y $.$.Y U Y $.#.%.%.$.$.Y U Y $.$.Y Y U e e ..| { { [ { { ] ] ] ] ] { ( l j m C C ",
". * p c p 4 & = p c a v n n n n m m C C e e U U Y Y U e Y Y $.#.#.$.Y Y e U Y Y U U e e { ] ' ] ] ] ] ] ] ] ] ] ] ' h h C m C m ",
"=..   @ @ O 2 n C C C C C C C C C C Z Z D ! e e U U U e U Y Y Y Y Y Y U e U U U e e O.{ ] { ] ] ] ] ] ] ] [ ] ] P s @ n C m C m ",
"=.=.=.=.& * v Z D Q T T K H K D D Q ~ ~ ) ] ] [ e e e U e U U U U U U e U e e e O.O.{ ) ] ] ] ] ] ] ] ] [ ] ' N & : 9 t m C C C ",
"=.=.=.. @ a A ~ ] ] ] ] ] ] ] { ] ] { ] [ ] ] ] ] ] ] V U e e e e e e U O.O.O.O.| { { { ] ] ] { ] ] ] ] [ / d + 4 n m 4 4 b C C ",
"=.=.* O i Z E ) ] { ] { { | ..X.{ { [ [ [ [ ] ] ] ] ' 4 4 m m C C A ~ { | X.X.| ] ] ' { ] ] ] ~ ~ ~ ' ' K 3 + y m C m m i 2 = t ",
"=.=.@ 1 m C C Z T { | X.@.o.o.X...[ ] [ ' [ [ ] ] ] ! ; i Z m C C Z E ) ] ] ] ' ' ] { ' { ) E Z C C A S * O p C m m m C m m y < "
};
