/* XPM */
static char *result[] = {
/* columns rows colors chars-per-pixel */
"64 64 236 2 ",
"   c #040201",
".  c #0C0603",
"X  c #0C0905",
"o  c #140A04",
"O  c #1C0D05",
"+  c #120804",
"@  c #1D1108",
"#  c #200F04",
"$  c #231106",
"%  c #2C1506",
"&  c #241309",
"*  c #2A1609",
"=  c #2C1A0B",
"-  c #261809",
";  c #341B0A",
":  c #3B1E0A",
">  c #341907",
",  c #271A12",
"<  c #2A290D",
"1  c #3C220E",
"2  c #39270B",
"3  c #342216",
"4  c #3C370C",
"5  c #411F0A",
"6  c #43220C",
"7  c #4C260D",
"8  c #4F280F",
"9  c #54290D",
"0  c #5B2D0E",
"q  c #50270D",
"w  c #432410",
"e  c #4B2C12",
"r  c #472911",
"t  c #532D14",
"y  c #5B2E11",
"u  c #5C3216",
"i  c #553514",
"p  c #483D12",
"a  c #602F0F",
"s  c #62300F",
"d  c #653211",
"f  c #6E3712",
"g  c #6C3B1B",
"h  c #653819",
"j  c #703712",
"k  c #723913",
"l  c #793E17",
"z  c #763E1A",
"x  c #612F10",
"c  c #4D2423",
"v  c #374C10",
"b  c #38551B",
"n  c #475A16",
"m  c #594C1A",
"M  c #6B471C",
"N  c #75421E",
"B  c #7C421B",
"V  c #75481D",
"C  c #63591B",
"Z  c #496518",
"A  c #5A771D",
"S  c #4B721C",
"D  c #656D1D",
"F  c #50542F",
"G  c #7B4921",
"H  c #685825",
"J  c #735425",
"K  c #644E32",
"L  c #576A27",
"P  c #6A6426",
"I  c #667A29",
"U  c #75782C",
"Y  c #7C7834",
"T  c #746E2F",
"R  c #6B7947",
"E  c #6F7354",
"W  c #7B7B64",
"Q  c #545F47",
"!  c #83451C",
"~  c #85491C",
"^  c #894A1F",
"/  c #844922",
"(  c #8C4C23",
")  c #824721",
"_  c #904E23",
"`  c #8C5325",
"'  c #945226",
"]  c #995527",
"[  c #9D5729",
"{  c #9E5929",
"}  c #985926",
"|  c #A25C2A",
" . c #887131",
".. c #A5612B",
"X. c #AA652D",
"o. c #AE6A2E",
"O. c #A7682D",
"+. c #B16D2F",
"@. c #B4702F",
"#. c #B46F30",
"$. c #B57130",
"%. c #B87330",
"&. c #807A46",
"*. c #56851E",
"=. c #62841E",
"-. c #589524",
";. c #548722",
":. c #688626",
">. c #76852C",
",. c #6B9326",
"<. c #779A2A",
"1. c #7A8937",
"2. c #739132",
"3. c #7CA52A",
"4. c #76A834",
"5. c #75B232",
"6. c #6EAF2E",
"7. c #788654",
"8. c #84893A",
"9. c #85953B",
"0. c #969937",
"q. c #8A8A2F",
"w. c #83AD2C",
"e. c #82A72E",
"r. c #85B12D",
"t. c #8AB72E",
"y. c #88A735",
"u. c #9AA43A",
"i. c #8BB332",
"p. c #88B635",
"a. c #92BB35",
"s. c #95B839",
"d. c #A5A93B",
"f. c #ADB23E",
"g. c #9BCB35",
"h. c #9BC33A",
"j. c #9ECC39",
"k. c #95C433",
"l. c #A3CE3C",
"z. c #A1C73E",
"x. c #A6D03F",
"c. c #969947",
"v. c #899153",
"b. c #98A646",
"n. c #8DB641",
"m. c #99B746",
"M. c #90A64F",
"N. c #A4B949",
"B. c #B4B941",
"V. c #ABB953",
"C. c #B4BB5A",
"Z. c #A9AC55",
"A. c #878865",
"S. c #989A79",
"D. c #91946B",
"F. c #9DA468",
"G. c #91AC66",
"H. c #AFB373",
"J. c #A8C847",
"K. c #B5C74B",
"L. c #ACD144",
"P. c #A8D042",
"I. c #B3D34B",
"U. c #B7D44E",
"Y. c #B6C856",
"T. c #BCD653",
"R. c #B4D556",
"E. c #ADCD50",
"W. c #B7D466",
"Q. c #C7CC49",
"!. c #CED34B",
"~. c #C0D756",
"^. c #C2D55A",
"/. c #C4D85A",
"(. c #C8DA5E",
"). c #C7D654",
"_. c #D1D658",
"`. c #C3CE5F",
"'. c #CBD564",
"]. c #CCDB62",
"[. c #C3D967",
"{. c #D3DB65",
"}. c #D5DD6A",
"|. c #D9DF6E",
" X c #D2D665",
".X c #CCD978",
"XX c #DADE75",
"oX c #C6CA6E",
"OX c #DBE06F",
"+X c #DCE070",
"@X c #DEE27D",
"#X c #D6E17C",
"$X c #007B9D",
"%X c #007DA0",
"&X c #00AFDB",
"*X c #00BAE9",
"=X c #009FC8",
"-X c #6CBAD9",
";X c #00CCFF",
":X c #58CAEF",
">X c #76C1D3",
",X c #9B9B83",
"<X c #9B9B97",
"1X c #9FA386",
"2X c #A5A789",
"3X c #B1B492",
"4X c #B8B7A8",
"5X c #AAABA5",
"6X c #A19E8A",
"7X c #BDC288",
"8X c #B3CDA9",
"9X c #D4D888",
"0X c #CDD08D",
"qX c #DEE382",
"wX c #D6E289",
"eX c #DAE58D",
"rX c #E0E485",
"tX c #E2E68B",
"yX c #E3E792",
"uX c #E4E895",
"iX c #E5E99B",
"pX c #E1E59A",
"aX c #CCCBB2",
"sX c #E7EBA1",
"dX c #E5E8AC",
"fX c #EAEDBC",
"gX c #B3E6FF",
"hX c #91D9F1",
"jX c #D9D7D4",
"kX c #D6D1C6",
"lX c #E6E8D8",
"zX c #FEFEFE",
"xX c #F8FAF6",
"cX c #EDF0EC",
"vX c #D1E4E8",
"bX c None",
/* pixels */
"bXbXbXbXbXbXbXbXbXbXbXbX    . o O o $ 2 r 2 - $ < 2 ; ; .       bXbXbXbXbXbXbXbXbXbXbX    X X O 2 2 r e r r 2 2 3 =   bXbXbXbXbX",
"bXbXbXbXbXbXbXbXbXbX    @ e V G M g u i r r i r 7 r e i i i e 1 = & - P b.C.C.Z. .< 1 M M G G G ` G V J N z V G V N u : + bXbXbX",
"bX. O & # O   bXbX    @ V O.%.$.+.%.+.+.O.@.@.@.+.+.$.+.+.@.+.O.} H C.OX|.+X+X+X|.oXY o.$.%.$.#.o.X...| | | [ | { | [ ' h * bXbX",
"# h G / / N 3 X   o X g $.X...| | [ [ } ' ' [ | { | ........| [ Y '.OXOX+X+X+X+X|.|.}.T ..| | { [ [ { { [ [ [ [ [ [ [ [ ] g * bX",
"w ' [ [ [ [ / e & 3 O g #...{ [ [ ..{ B k f k l B / _ } [ [ } T '.|.|.|.+X|.}.}.OXOXOX'.G | [ [ [ [ [ [ [ | [ [ [ [ [ [ { ] e & ",
"; _ { { ....{ ` t = + w } | [ [ O.@.o.B f f f f j j k B [ [ V K.|.+X|.|.{.].T.Y./.OXOXOXb._ [ [ [ [ [ [ [ [ _ ~ ( ] [ [ [ | N & ",
"& / { o.#.#.#.#.{ t + + G [ [ { @.@.@.^ f f f f j f f l ] ' >.~.|.|.}.'.Y.2.n Q Q b.].|. XJ | [ [ ] ] [ [ [ B f k _ | [ [ [ / = ",
"@ g ..#.#.#.#.$.$.} e . e ] [ | @.@.%.} f f f f j k B ' [ M N.T./.].T.E.:.Q jXzXzXjXF. X}.&.J T  .v. .Y J g s f j ! [ [ [ | g O ",
"X e O.$.#...+.#.$.O.B : O B ] { +.$.$.O.j j f f ! { +.o.' I m.T.T.T.T.<.b vXzXzXcXgXvXC.].b. X|.OXOXOXOX|. XC.c.K f ] [ [ ( ; 1 ",
"bX; O.+.' ! l ! ~ B j 0 O g [ { X.$.$.+.~ j B } o.%.@.| C s.s.U.T.T.J.I <XzXzXzXgX&X:X4X(.V.'.|.].OX].OX|.}.OXOX|.Z.G [ _ w 3 ( ",
"bX, O.| l f f f f f f : 1 ' [ [ | #.$.$.o...o.%.@.@.+.V e.s.J.I.U.U.s.Z jXzXzXzX-X=X&X-X/.T.~.(.(.].].].].{.OXOX|.|.C.G t > / | ",
"bX& / l f f f j f f 1 O G { [ [ { o.$.$.%.@.%.@.@.+.] :.s.i.L.L.I.L.i.n cXzXvX-X$X$X=X:XT.~./.)./.(.(.(.].].(.OX|.}.Y.8.# z | [ ",
"bXO u j f f j f k 9 + t ' | [ [ [ | +.$.$.$.@.+...| M r.p.h.P.P.L.L.i.n cXzXhX;X$X$X;X:XI.).~.~.T./././.(.(.(.(.OXY.b 1.t [ [ [ ",
"bX& 8 j j f f j s # 5 ( [ [ [ [ [ [ | ..X.o.X.{ | ] I t.p.j.P.P.P.L.s.A jXzXgX;X&X&X;X>XU.U.T.T.T./.T./././.(.(.(.K.X 2.z [ [ [ ",
"bX& : f j f f s % > f l / ] [ [ [ [ [ [ [ { [ [ [ ^ <.r.t.j.x.x.l.P.z.:.<XzXxX:X;XgXgX8XU.I.U.T.T.T.T.T.~.~.~./././.I b.) [ [ [ ",
"bXbX- 1 q 5 : # O s j j j l ( ] [ { [ [ [ [ [ [ [ ~ w.t.k.j.j.j.l.x.l.w.L cXzXxXgXzXcXJ.I.I.I.U.U.T.T.T.T.T.~.~.~././.Z.( [ [ [ ",
"bXbX1 , o   o O : f f f f j k ) _ [ [ [ [ [ [ [ [ / r.r.t.g.g.g.j.j.l.j.4.7.jXzXzXlXW.L.I.L.I.I.I.I.I.U.T.T.T.T.T.~.T.b.' [ [ [ ",
"bXbXo ; u e o o 7 j f j j j f j k ( ] [ [ [ [ [ } ` r.r.t.g.g.g.g.g.j.j.h.i.,.G.G.s.P.P.L.L.L.L.I.I.I.I.I.U.I.U.T.T.T.T ` [ [ [ ",
"bX. : ( [ _ ; o 5 f f f j j j f j j l ( ] [ [ [ } z 3.r.3.J..XwXeXwXwXW.E.g.l.j.l.j.z.P.P.P.L.L.L.L.I.L.I.I.I.U.U.U.I.< u [ [ [ ",
". - / [ [ [ g @ ; f f f j f j f j j j j l ! _ ' ~ H s.<.f.tXsXsXsXsXsXsXsX0XM.<.r.i.r.r.s.k.P.J.x.P.L.L.L.L.I.I.I.I.y.u & / [ [ ",
". t [ [ | ..{ h # 9 j j j j j j f f j f f f j k d b.N.d.!.uXiXsXsXsXsXsXsXsXsX7XI 3.3.w.i.w.e.p.g.l.P.P.P.L.L.L.I.L.J _ 1 w ' [ ",
"o G { [ X.$.X.' t # y j f j j j j j f j f f j j 9 Y.c.Q.!.qXuXiXuXiXiXiXiXiXiXsXpXA.c K 5XW aXI ,.3.s.s.h.l.P.P.J.>._ [ N $ g [ ",
"@ ( [ [ X.$.o.[ _ 1 $ x j j f j f f j f f j j f m (.8.!.!._.rXtXtXuXyXyXyXuXuXuXiXuX0X3XS.&.aX,X2X4XE 2X:.4.y.y.I B [ [ [ t * ) ",
"& ( | { X.%.o.B ] / % > d j f f f j f f j f f j U (.b.K.!.!.!.+XqXrXrXeXtXrXyXtXyXyXyXuXuXpX0XH.F.A.S.5X&.<Xw e ` { [ [ | / & y ",
"& _ [ [ o.$.#.B B [ B $ 6 f f f j j f j f f j f 1.(.Y.0.!.!.!.!._.+X@X@X@X@X+X}.rXrXrXtXtXtXtXtXtXyXyXwX0X0X0XH.( [ [ [ [ ] w 6 ",
"& ( [ [ X.$.$.~ f ^ [ g # 7 f f f f f f j f f f 8.(.~.b.f.!.!.!.!.!._._.{._.!.!._.{.+X@X@X@XrXrXrXrXrXrX9XXX_.0.' [ [ { [ | h * ",
"@ _ { [ X.%.@.~ f ! [ ] u # x j j f k f j f f d 9./.~.~.u.u.!.!.!.!.!.!.!.!.!.!.!.!.!.!.!._._. X{.{._.{._.!.d./ { [ [ [ [ | g @ ",
"@ _ [ [ ..$.#.~ f k ' | ' w > d f f f f f f f f 8./.T.U.U.N.>.0.K.!.!.!.!.!.!.!.K.f.f.d.d.d.d.u.d.0.0.0.q.` _ [ [ { } [ [ | ( * ",
"@ ( [ ] | #.+.~ f f ( [ | ) * w f f f j f j f f 8.Y.N.{.{.L.i.y.C.c.c.c.0.U  .N ) ( ( ' ' ' { O.+.+.+.@.#.#.| [ [ [ | [ [ [ [ t ",
"o g | [ | #.+.! f f l [ [ ] z * r f f j f f f f 1.1.OXOX+XU.a.,.`.|.|.+X+XZ.^ [ [ [ { [ [ { X.$.+.@.@.@.%.#.| | [ [ [ [ [ [ [ G ",
"bXw [ [ | #...l f j l ] [ ] ] g * r f f j j f f < V.OXOX|.l.t.,.m.|.+X+XXX|. .} [ [ { [ [ [ o.#.#.$.@.@.#.#.| [ [ [ [ [ [ [ [ ] ",
"bX, _ [ [ | | _ l B _ | | | [ [ g $ q j f f j f < (.OXOXI.g.t.,.y.'.+X+X+XXX XH [ [ [ [ [ { +.$.$.$.@.%.%.%.o.[ [ [ [ [ [ [ [ [ ",
"bX+ h ) [ [ [ [ [ [ { | o.#.X.} [ u & y f f f d I U.T.L.g.t.w.Z J.U.+X@X@X@X@XH.) [ [ [ [ | X.%.#.#.+.+.o.o.| [ [ [ [ [ [ [ [ ] ",
"bX  E C.M } [ { [ [ { X.$.$.$.O.[ ' t & ; 1 ; O N.I.L.l.g.w.A y.L.L.].@XqXrXrXrX&.] [ [ [ [ | | | | | | | [ | [ | [ [ [ [ [ ] ! ",
"bX  0X.XY.P ' { [ [ { o.$.$.$.@.| | ' G u e * n I.I.h.<.r.=.9.L.L.L.L.+X@XrXrXuX0Xz { ] [ [ [ [ [ [ [ [ | ] [ | ] [ [ [ [ [ _ j ",
"bX  0XpX~.^.Y / [ [ { o.$.$.$.@.#.| [ | ] _ m 9.T.I.x.3.n I I.L.L.L.P.[.rXrXuXsXpXv.[ { [ [ [ [ [ [ | _ _ ^ / / ( ( ^ ^ ^ ! j j ",
"bX  W.dX[.T.~.b.J _ [ ..#.$.$.@.#.| [ ] ! C m.8.{.T.L.z.A y.L.L.P.P.x.L.@XrXsXsXsX0X! { [ [ [ [ [ [ ^ k j j f j j f j j j j j j ",
"bXX 0.pXeXR.T.~.Y.b.P N ` ....| } G J 8.V.V.J.I  X(.U.L.i.n <.s.l.P.l.l.@XyXsXsXsXpXh / _ [ [ [ ] ( j f j j f j f j j j j j j j ",
"bX. m }.iX[.I.U.T.~./.Y.m.u.b.m.N.Y.T./.J.N.U.J.8.}.T.L.a.3.<.=.W A.t.j.}.iXsXsXsXiX&.5X6X/ [ | _ l j j j j f f j f j j j f j x ",
". + 7 Z.XXyXT.I.I.U.T.T.T.T.T.T.U.U.T.N.N.U.U.T.1.C.].I.x.k.g.k.7.lX7.j..XuXsXsXsXiXS.jX0X) [ ' l j j f f f f j j f j f f j q % ",
". q j C Q.rXeXU.L.I.U.U.U.I.U.U.I.I.J.2.I.I.U.U.K.I }.].I.l.j.g.3.R b.y.oXtXyXyXyXyXF.3XW / _ l f j j f f j j f f j f j j y O % ",
"o 0 j s q._.eXyXW.P.L.I.L.L.L.L.L.L.<.i.L.I.I.I.U.>.`.|./.L.l.g.k.Z ^.(.b.oXtXyXyXuXF.L L e k f f f f j f f f j f f f j d % $ x ",
". 6 j f 0 f._.qXiXwXT.x.L.L.L.L.L.P.:.i.L.L.L.L.I.y.V.+X}.L.P.g.g.Z N././.c.9XyXyXuX7.i.E 7XK f j f f f j f f f j j f j 0 O 9 j ",
"bX% f f f i B.!.XXuXiXwXT.P.l.l.x.l.I r.z.x.L.L.x.s.v.{.}.I.z.z.t.W S.Y./.^.v.yXyX9XI n.1.aX4Xy f j j f f j j f f f j j y # s j ",
"bX. 0 j f f m f.!._.9XuXuXyXwX[.R.L.:.r.i.l.x.x.L.L.I Y.~.I.s.i.A kXaXm.T.~.c.`.+XZ.M.Y.n.,XW d g j f j f f j f f j j j y . : j ",
"bX  6 k f f f 0 d.!.!. XXXtXeXyXuXuXF.3.i.h.l.x.x.x.h.D b.N.y.S L D.M.{.|.|.`.Z.oXY C.Y.Z.b f f j j j f j f f j f j j j 7   + 9 ",
"bXbX> k f f f f 0 U B.!.!._. XXXqXtX.X:.w.t.g.l.l.l.x.l.y.F 5X4Xu.I.[.+X|.+X}.1.I V.Y.C.m.Z t f f j j f j f f f j f j j 5 X @ * ",
"bXbX$ a 0 a f f j f 9 C U B.!.!.!.!.!.q.e.w.t.k.g.l.l.l.x.s.M.S.s.L.U.{.|.+X'.:.6.5.n.n.5.n o $ : 7 0 d f d f f f j j d ; . 3 o ",
"bXbX. $ : : w f g j f j f s C q.f.K.!.Q.:.r.r.r.k.g.g.g.l.l.l.x.P.L.L.L.T./.I.;.5.5.5.5.5.r 7 ; % # O $ % > 1 6 7 9 7 > o o 3 , ",
"bX  O N ' / ; w f j j f f j j j d 0 h P C A r.r.r.t.k.g.j.j.j.h.a.h.P.L.L.L.L.b -.6.5.5.;.s j f f s 9 7 6 > % % $ $ $ % q > , 3 ",
"bX  r | [ [ g & 9 f f f j f j j f f k f k f A r.r.r.r.r.t.t.t.r.i.i.a.l.P.P.4.;.-.-.-.-.2 j f j f j k j f f f s f s f f f 9 O 3 ",
"bX  t | [ [ _ w $ 0 j f f j f f f f f j k j j C 3.r.r.r.r.r.w.r.r.r.i.i.a.w.Z -.-.-.S 2 f j f j j j j j f f f f f f f f f d & , ",
"bXX u [ ' / z d O ; f f f f j f f f f f j f j s 4 3.e.r.r.w.r.r.r.r.r.i.,.S -.,.4.1.p l _ ) k k f f f f f j k B B ! ! l f f : @ ",
"X : f ( ! j f f > O s j j f f j f f j f f j 0 $ v 3.r.a.a.a.t.t.i.s.J.I 2.n.n.m.2.t l _ | | _ ( ! ! ! ^ _ ' [ ..| ..X.O.{ B : X ",
"+ x l f f f f f q . 7 f f j f j f f f f d 7 & O 4 r.r.l.x.U.Q.~.^.[.1.2.n.n.m.I s B _ | $.$.X.$.+.+.@.@.@.@.@.@.%.@.$.%.$.B O $ ",
". y f f j f f f 9 . $ d f f f f f f t 7 * $ : d p r.r.l.I.U.T.~.Y.I 5.n.n.m.L d ~ [ X.@.$.$.$.$.@.@.@.@.%.@.@.%.%.@.+.O.' ; 7 s ",
"+ s j j j j j f : + . : 7 7 9 7 6 ; # % 7 s f f m m.Y.].].].^.Y.9.9.b.m.m.c.U T ` O.#.#.%.$.$.$.#.o.+.X.X.X.X.X...| | ( w q j j ",
"+ 0 j j j j d 5 O % $ O O O # & % 5 9 f f f f U ].+X+X+X|.|.|.OX]./.K.2.1.M.N.n.n.:.P ` X.#.X.| | | | [ | | [ [ [ | ' u y f j j ",
". $ q x q 5 # % 9 s 0 s s s d f f f j j f j C I.~.].].]. X].(.(.T.E.m.y.2XlX1X,.,.-.W aX6XJ ' { [ [ [ [ [ [ [ [ [ ' u t j f f f ",
"bX  . # o . % d k j j j j f f f j j j k B l y.L.L.L.I.L.L.L.L.L.P.i.R S.H.fXxXjXE W v.aXkXkXA.( [ [ [ [ [ | [ [ B w O d j j f j ",
"bXbXbXbX# $ d j l ! ! ! B l B B ! ~ _ ' { M r.z.x.l.l.l.l.l.l.l.a.1.dXxXlXD.9XxXxX6X4X&.F.aXjX6X) [ | [ [ [ ' h $ * 1 6 f j j j ",
"bXbXbX. O 0 l _ [ | [ ] [ [ ] | ] [ [ [ { D r.r.t.t.k.k.k.k.k.k.i.v.sXdXxXlX7.pXxXxXS.aXD.H.kXjX2X) [ [ | _ e + : d f : : s f k ",
"bXbX$ + q j ( ' [ [ | | | o.o.o...[ [ [ [ n =.=.=.=.=.=.=.=.=.:.=.R H.H.3X4X,XE 3X4X5XQ S.F D.,XS.F ( [ G > + 8 f f f f 7 > % 5 ",
"bXbXO : j j j l ! | o.+.#.#.#.#.+.[ | [ [ } [ } [ [ / O 8 f s f f f ~ ] ] } [ { [ [ [ ] [ ] ! j j f z z $ . q f j f j f j f 7 > "
};
