/* XPM */
static char *result[] = {
/* columns rows colors chars-per-pixel */
"64 64 160 2 ",
"   c #010000",
".  c #0B0402",
"X  c #0F0803",
"o  c #0B0808",
"O  c #110602",
"+  c #140B04",
"@  c #1B0E05",
"#  c #150E0A",
"$  c #1D1203",
"%  c #1F1800",
"&  c #1E1209",
"*  c #220F04",
"=  c #221206",
"-  c #2B1406",
";  c #251901",
":  c #2B1A07",
">  c #24140A",
",  c #2A1609",
"<  c #261809",
"1  c #2C1A0B",
"2  c #341907",
"3  c #391B06",
"4  c #331C0B",
"5  c #3B1E0B",
"6  c #321D10",
"7  c #322600",
"8  c #372901",
"9  c #3A2902",
"0  c #35210D",
"q  c #3C230E",
"w  c #3C3301",
"e  c #3B2212",
"r  c #44220C",
"t  c #4C250C",
"y  c #4E280E",
"u  c #542A0D",
"i  c #5B2D0F",
"p  c #453B01",
"a  c #432411",
"s  c #462B11",
"d  c #4C2C13",
"f  c #4E2E18",
"g  c #532E14",
"h  c #5B2E11",
"j  c #522F19",
"k  c #48301F",
"l  c #523114",
"z  c #5C3216",
"x  c #5B3817",
"c  c #55321A",
"v  c #5A341C",
"b  c #62300F",
"n  c #612F10",
"m  c #643312",
"M  c #6F3712",
"N  c #633618",
"B  c #653B1B",
"V  c #6A3C1E",
"C  c #703712",
"Z  c #723914",
"A  c #793E17",
"S  c #723E1D",
"D  c #7A3F18",
"F  c #482F20",
"G  c #493020",
"H  c #563620",
"J  c #583620",
"K  c #5A3820",
"L  c #653D20",
"P  c #6F3F21",
"I  c #703F21",
"U  c #715C07",
"Y  c #67401A",
"T  c #6C431C",
"R  c #7A4017",
"E  c #75411F",
"W  c #7C421A",
"Q  c #76491F",
"!  c #7E4A1F",
"~  c #7D581B",
"^  c #7C6705",
"/  c #6F4121",
"(  c #744221",
")  c #784421",
"_  c #7D4A25",
"`  c #82451C",
"'  c #844A1D",
"]  c #894A1F",
"[  c #865C17",
"{  c #84531E",
"}  c #896614",
"|  c #936F13",
" . c #9B6E17",
".. c #9E6F18",
"X. c #9E7018",
"o. c #AF7E0E",
"O. c #A16C14",
"+. c #A67612",
"@. c #AB7413",
"#. c #AE7D12",
"$. c #B57C12",
"%. c #BA7E11",
"&. c #814721",
"*. c #824B26",
"=. c #8C4D23",
"-. c #824C28",
";. c #884E29",
":. c #904E23",
">. c #845322",
",. c #8C5425",
"<. c #8E5926",
"1. c #8B512B",
"2. c #945125",
"3. c #995527",
"4. c #965A24",
"5. c #9D5B27",
"6. c #90542E",
"7. c #9D5729",
"8. c #9E5929",
"9. c #A25C2A",
"0. c #9D6229",
"q. c #A5622B",
"w. c #AA652D",
"e. c #A7682D",
"r. c #AD6A2E",
"t. c #B16D2F",
"y. c #B3702F",
"u. c #B46F30",
"i. c #B57130",
"p. c #B87330",
"a. c #A8850D",
"s. c #BB9C09",
"d. c #AD8213",
"f. c #B48912",
"g. c #CF9B0C",
"h. c #D39E0B",
"j. c #DC9D09",
"k. c #C19613",
"l. c #C7A00D",
"z. c #DCAE00",
"x. c #D4AD0D",
"c. c #D8B10C",
"v. c #EFAF04",
"b. c #E1A008",
"n. c #F0AF03",
"m. c #E3B600",
"M. c #EFBF00",
"N. c #F5B302",
"B. c #FFBB00",
"V. c #E5C306",
"C. c #EDCB04",
"Z. c #F5C300",
"A. c #FDC700",
"S. c #FFCB00",
"D. c #F4D402",
"F. c #FFD200",
"G. c #F7D802",
"H. c #FADA01",
"J. c #FFE100",
"K. c None",
/* pixels */
"K.K.K.K.K.K.K.K.K.K.K.K.    X + @ + = 4 s 0 < : 4 0 0 0 O     . K.K.K.K.K.K.K.K.K.K.K.. . . X # 0 q s d s s e q q :   K.K.K.K.K.",
"K.K.K.K.K.K.K.K.K.K.    & d Q ! Q Y x g s s d y s s d l l l l q : & 4 Y K.K.K.K.+ < e Y T Q ! ! >.>.Q Q Q E Q Q ) E z 5 + K.K.K.",
"K.O @ = = @   K.K.  . = Q r.y.y.t.u.t.t.t.t.t.t.r.r.y.y.t.y.t.e.0.,.l > 1 X   : Y 4.e.i.p.i.i.t.r.w.q.q.9.9.7.7.8.8.7.2.B > K.K.",
"& N ` *.&.( 5 .   # o B t.r.9.q.9.7.7.3.3.4.7.9.q.q.q.q.q.9.w.9.q.q.9.V $ + d 0.i.u.u.q.q.q.9.8.7.3.5.8.7.7.7.7.5.7.7.7.7.I , K.",
"a 2.7.7.7.3.&.g = e + V r.q.8.7.8.w.5.D Z Z C R W ' ,.3.7.7.7.7.7.7.8.&.& d e.y.i.u.9.7.7.7.7.7.7.7.7.7.8.7.7.7.3.9.7.7.7.3.d , ",
"4 ,.7.9.q.9.9.;.f 4 + a 5.9.7.7.r.i.r.W M M M M C C Z ` 7.7.7.7.7.8.3.N a q.p.y.w.9.7.7.7.7.7.7.7.8.7.7.7.7.2.` =.3.7.7.7.7.I = ",
"> &.9.r.p.i.u.u.8.j O + ) 7.7.9.y.y.y.] M M M C M C M R 3.7.7.7.8.2.B q q.i.y.r.9.7.7.7.7.7.7.7.7.7.7.7.7.7.W C C :.7.7.3.9.*.1 ",
"# P 9.u.u.u.i.i.p.4.d . g 3.7.8.y.y.y.4.M M M M M C ` ] 7.7.7.7.2.z 0 <.y.t.q.8.7.7.7.7.7.9.7.7.7.7.7.7.7.=.C C C ` 7.7.9.7.S @ ",
"o d e.y.u.q.t.y.i.e.R 5 & ) 8.8.t.i.i.q.Z C C C ` 5.u.u.7.7.7.9.B q <.y.r.9.7.7.7.7.7.7.7.7.7.7.7.3.3.9.:.Z C M C A 7.7.9.=.6 5 ",
"K.4 e.y.2.` R ` ' R C i @ M 7.7.w.u.i.t.' C R 4.t.u.u.9.7.7.7.=.1 *.i.r.7.7.7.7.9.7.7.7.7.7.7.7.7.9.3.:.A M M M C Z 2.7.:.a 5 =.",
"K.1 q.q.A M M M M M M 3 a :.7.7.9.u.i.i.t.q.t.p.t.y.u.9.7.7.9.S 1 5.i.r.7.7.7.7.:.` W ` :.3.7.7.7.3.&.Z C C M M C C 2.3.g 2 *.7.",
"K.& &.W M M M M M M q @ ) 7.7.7.7.t.i.i.y.y.y.y.y.t.9.7.7.7.9.S 5 5.i.t.9.7.3.] Z C C C Z D ' 2.] A C M C C C M C Z 2.M * I 9.7.",
"K.@ z C M M M M C u O g 3.7.7.7.7.9.t.i.u.u.t.t.w.9.7.7.7.7.7.&., *.t.t.7.:.W C C C C M M M M Z C C C C M M C M C W I - v 3.7.7.",
"K.= y C M M M C m * r =.7.7.7.7.7.7.9.q.q.t.w.9.7.7.7.7.7.7.7.3.a B 9.9.] A C M M C M M C M C M C C C C M M M M C Z y 6 =.7.7.7.",
"K.> q M M M M b - 2 M A ] 2.7.7.7.7.7.7.7.9.7.7.7.7.7.7.7.7.7.7.B 5 ) D C M C M C M M M M M C M M M M M C C C C C h * c 3.3.7.7.",
"K.K., 5 u 5 3 * @ n C C C A =.7.7.7.7.7.7.7.7.7.7.7.7.7.7.9.7.9.=.q r M C M M M M M C M M M M M M M C M C C C C C t * &.7.9.7.7.",
"K.K.e , + . + # 3 M M M M M Z ` 2.7.7.7.7.7.8.7.8.7.7.7.:.` W W ` m = i C C M M M M C M M M C C C M M M M M M C C u @ ` 7.7.7.7.",
"K.K.+ 5 z a + + t M M M Z Z M M Z =.2.7.7.7.7.7.7.7.3.` C M M M C C r - b M M M C M M M M C C C M C M M M C M M C r . a 2.7.7.7.",
"K.. e =.7.=.5 + r M M C M M M M M C D =.3.7.7.7.7.:.D C C M M M C C m * t C M M M M M M M M m m i u r 5 t u i m i = - = z 7.7.7.",
". > &.8.7.7.V @ 2 M M M M M M M C M M C Z ` :.2.` C M C C M M C M M M 3 - m M M M M C M i 5 - - , 6 , - = = = > = 2 ) N > &.9.7.",
". h 7.7.9.w.5.N = u C M M M M M C C C C C M C C C C C C C C C C M C C r X u C M C M i 2 @ e N S &.&.&.&.=.=.&.&.&.:.7.:.5 a 2.9.",
"+ I 9.7.w.i.w.N       . . .   .   .     . .   .   .   . .   .     . .       . .         . . O . O . . O . .     N 7.7.7.( = V 7.",
"& =.9.7.w.i.r.r                                                                                                 1 9.7.7.3.g - &.",
"= =.7.9.w.i.t.3                                                                                                 2 7.7.7.7.=.* h ",
"> =.7.7.w.= .       + f j J v v v v v v v v v v v v v v K v v v v v v v v v v v K v v v v v v v v v v K v #         . 7.7.3.a r ",
"= :.9.7.w.X         & 6.6.6.6.6.6.6.6.6.6.6.6.6.6.6.6.6.6.6.6.6.6.1.6.6.6.6.6.6.6.6.1.6.6.6.6.6.6.6.6.6.6.&           7.7.8.N , ",
"& :.:.I ' @         , _ _ ;.;.;.;.;.;.;.-.;.;.-.;.;.-.;.-.;.;.;.;.;.;.-.;.;.-.-.-.;.;.;.;.;.;.;.-.;.;.;.1.1         . S S 2.S @ ",
"& :.h           6.6.( ) ) ) ) ) ) ) ) ) ) ) ) ) ) ) ) ) ) ) ) ) ) ) ) ) ) ) ) ) ) ) ) ) ) ) ) ) ) ) ) ) ) ) 6.6.          g =., ",
"& =.h           6.6.( ) ) ) ) ) ) ) ) ) ) ) ) ) ) ) ) ) ) ) ) ) ) ) ) ) ) ) ) ) ) ) ) ) ) ) ) ) ) ) ) ) ) ) 6.6.          g 7.j ",
"O S V     & @ > -.-.) ) ) ) ) ) ) ) ) ) ) ) ) ) ) ( ) ) ) ) ) ) ) ) ) ) ) ) ) ) ) ) ) ) ) ) ) ) ) ) ) ) ) ) -.-., + @     m 8.W ",
"K.a V     j 6.1.) ) ) ) ) ) ) ) ) ) ) ) ) ) ) ) ) ) ) ) ) ) ) ) ) ) ) ) ) ) ) ) ) ) ) ) ) ) ) ) ) ) ) ) ) ) ) ) 1.6.v     V 7.3.",
"K.> m     j 6.1.) ) ) ) ) ) ) ) ) ) ) ) ) ) ) ) ) ) ) ) ) ) ) ) ) ) ) ) ) ) ) ) ) ) ) ) ) ) ) ) ) ) ) ) ) ) ) ) 1.6.v     B 7.7.",
"          e _ ) ) ) ) ) ) ) ) ) ) ) ) ) ) ) ) ) ) ) ) ) V.G.G.H.H.G.H.C.I ( ( ) ) ) ) ) ) ) ) ) ) ) ) ) ) ) ) ) ) ) f     X   . ",
"          6 ) ) ) ) ) ) ) ) ) ) ) ) ) ) ) ) ) ) ) ) ) ) G.J.J.J.J.J.J.H.) ) ) ) ) ) ) ) ) ) ) ) ) ) ) ) ) ) ) ) ) ) f           ",
"          a ) ) ) ) ) ) ) ) ) ) ) ) ) ) ) ) ) ) ) { X.X.C.H.H.H.H.H.H.D. ...*.Q ) ) ) ) ) ) ) ) ) ) ) ) ) ) ) ) ) ) j     .     ",
"    . ) ) ) ) ) ) ) ) ) ) ) ) ) ) ) ) ) ) ) ) ) ) l.J.J.F.S.S.S.S.A.S.S.J.J.d.) ) ) ) ) ) ) ) ) ) ) ) ) ) ) ) ) ) ) ( ) ) .     ",
"    X ( ) ) ) ) ) ) ) ) ) ) ) ) ) ) ) ) ) ) ) ) ) l.J.J.S.S.A.S.S.A.S.S.J.J.#.) ) ) ) ) ) ) ) ) ) ) ) ) ) ) ( ) ) ) ) ) )       ",
"          # = > # # > > > > > 1 < > > > , > > > > ^ J.J.D.A.Z.S.S.Z.S.A.J.J.U > > > > < > > > < > > > > > > # # = = & + +       ",
"                                                  w J.J.F.S.S.S.S.S.S.S.J.J.p                                                   ",
"                                                  w J.J.F.S.S.S.S.S.S.S.J.J.p                                                   ",
"    . 6 6 f c j v v v v v c c j H j H j j j c j c s.J.J.F.A.S.S.S.Z.S.S.J.J.a.v v c c f v v k c k c c v v v v v c c c f f .     ",
"    O -.-._ -.-.-.-.-.-.-.-.-._ -.-.-.-._ -.-.-.-.c.J.J.F.S.S.S.S.S.S.F.J.J.k.-._ -._ _ -.-.-._ *.-.-.-.-.-.-.-._ -.-.-.-.o     ",
"    + _ _ _ _ _ -._ _ _ _ -._ _ _ _ -._ _ -.-._ -.x.J.J.F.S.A.m.m.Z.S.S.J.J.k.&.-._ -._ _ _ _ _ _ *._ _ -._ _ -._ _ _ _ _ O   . ",
"    O ) ) ) ) ) ) ) ) ) ) ) ) ) ) ) ) ) ) ) ) ) ) d.J.J.F.S.Z.    Z.S.S.J.J.f.) ) ) ) ) ) ) ) ) ) ) ) ) ) ) ) ) ) ) ) ) ) X     ",
"    X ) ) ) ) ) ) ) ) ) ) ) ) ( ) ) ) ) ) ) ) ) ) d.J.J.F.S.Z.    Z.S.S.J.J.f.) ) ) ) ) ) ) ) ) ) ) ) ) ) ) ) ) ) ) ) ) ) X     ",
"    # K H L L L H H K H K L L L P L L L L L L L B d.F.S.S.S.Z.    m.S.S.F.S.d.H H / K / L / K / B L L L L L / K K H K H H o   . ",
"      G F F F F G G G G G G G G F F G G F F F F G +.B.B.S.S.Z.    z.S.S.B.B.o.F F F F G F F G G k G G k G F G G G G G G G       ",
"    . G F F F F G G F G G G G G G F G F F F F F G +.B.B.S.S.Z.    z.S.S.B.B.o.F F F G G F F G G k G G k G G G G G G G G G .     ",
"    . / I ( P ( P P I I ( I I I I ( I I P I ( ( ( $.B.B.B.B.B.N.N.B.B.B.B.B.$.I / ( P E P ( ( ( ( / / / I I I I ( I ( I ( X     ",
"    . ) ) ) ) ) ) ) ) ) ) ) ) ) ) ) ) ) ( ) ) ) ( %.B.B.B.B.B.B.B.B.B.B.B.B.%.) ) ) ( ) ( ) ( ) ) ) ) ) ) ) ) ) ) ) ) ) ( X     ",
"    o ) ) ) E ) ( ) Q ) E ) E ) ) ) ) ) ) ) E ) ) @.j.j.N.N.n.N.N.v.N.n.j.j.@.) ) ( ) ) ) ) ( ) ) ) ) ) I &.&.I ) ) ) E ) +     ",
"    X ) ) ) ) ) ) ) ) ) ) ) ) ) ) ) ) ) ) ) ) ) ) ) ) ) ) ) ) ) ) ) ) ) ) ) ) ) ) ) ) ) ) ) ) ) ) ) ) ) ) ) ) ) ) ) ) ) ) O     ",
"    O ! E ) ) ) ) ) ) ) ) ( ) ) ( ) ) ( ) ( ) ) ) W ) ) ( ) ( ) ) ( ) ) ) ) ( ) ) ) ) ) ) ) ) ) ( ) ) ) ) ) D ) ) ) ) ) ) @     ",
"    = l.h.h.h.g.h.h.[ K K K H K H K K H v H K K J J K K H K K H H H H K H H K H v H H K H H H H v H H H H ~ x.l.h.h.h.l.l.-     ",
"    $ S.S.S.S.S.S.S.| G G F F F G G G G F F G G F F F G F G G G G G G G G G G G G G G G G G G F G G G k G } S.S.S.S.S.S.S.;     ",
"    + S.S.S.S.S.S.S.| G G F F F G G G G F F G F F F F G F F G G G G G G G G G G G G G G G G G F G G G k G } S.S.S.S.S.S.S.$     ",
"    $ S.S.S.S.S.S.S.@.( ( ( ( P I ( I I ( ) ) I ( / P ( ( / / ( ( / ( ( ( ( ( ( I I ( ( I ( ( ( ( I I ) ( @.S.S.S.S.S.S.S.;   . ",
"    $ S.S.S.S.S.S.S.$.) ) ) ) ( ) ) ) ) ( ) ) ) ( ) ( ) ( ) ) ) ) ( ) ) ) ) ) ( ) ) ) ) ) ) ) ) ) ) ) ) ) +.S.S.S.S.S.S.S.$     ",
"    $ S.A.A.S.A.A.A.@.S ( S ( ( ( ( E E Q ( E ( E ( E E ( E ( ( ( ) E E E ( ) E ( ) S ) E I ) S ( S ) E ( O.S.A.A.S.A.S.S.;   . ",
"    + B.B.B.B.B.B.B.@.V V V V P V V V V V V V V V V V V V V V V V V V V V V V V V V V V V V V V V V V V L O.B.B.B.B.B.B.B.$     ",
"    + B.B.B.B.B.B.B.@.V P V V V V V V V P V V V V V V P P V V V V V V V V V V V V V V V V V V V V V V L V O.B.B.B.B.B.B.B.$     ",
"    . 7 7 8 8 8 8 8 : & = & = > = & & @ > = & = = > & @ + @ & @ @ = @ > = > , > > = & > @ & = & , = * > & : 7 7 8 7 8 7 7 O   X ",
"                                                                                                                                ",
"                                                                                                                                "
};
