/* XPM */
static char *result[] = {
/* columns rows colors chars-per-pixel */
"64 64 101 2 ",
"   c #040201",
".  c #0C0603",
"X  c #0E0806",
"o  c #0B0808",
"O  c #110702",
"+  c #140A04",
"@  c #1C0E05",
"#  c #160F0A",
"$  c #1A0F08",
"%  c #1E1006",
"&  c #1C120C",
"*  c #210F04",
"=  c #231106",
"-  c #2B1506",
";  c #291807",
":  c #241409",
">  c #2B1609",
",  c #26180C",
"<  c #2D190B",
"1  c #301707",
"2  c #351A07",
"3  c #391C07",
"4  c #301708",
"5  c #331B0A",
"6  c #3B1E0A",
"7  c #241710",
"8  c #261A12",
"9  c #2B1C13",
"0  c #35210D",
"q  c #3C220E",
"w  c #322217",
"e  c #3A2314",
"r  c #352318",
"t  c #411F0A",
"y  c #44220B",
"u  c #4C250C",
"i  c #4E280F",
"p  c #50270D",
"a  c #54290E",
"s  c #5B2D0F",
"d  c #442410",
"f  c #482712",
"g  c #462B11",
"h  c #4C2C12",
"j  c #532D13",
"k  c #5B2E11",
"l  c #533114",
"z  c #5C3216",
"x  c #5B3817",
"c  c #5E3418",
"v  c #602F0F",
"b  c #61300F",
"n  c #612F10",
"m  c #643211",
"M  c #6F3712",
"N  c #6E3814",
"B  c #623619",
"V  c #653B1A",
"C  c #6B3B1B",
"Z  c #703712",
"A  c #723913",
"S  c #793E17",
"D  c #723E1D",
"F  c #7A3F18",
"G  c #67401A",
"H  c #6C431C",
"J  c #7A4017",
"K  c #75421E",
"L  c #7D421A",
"P  c #76491F",
"I  c #7D4520",
"U  c #7B4B20",
"Y  c #83451C",
"T  c #85491D",
"R  c #894A1F",
"E  c #814721",
"W  c #844A22",
"Q  c #8C4D23",
"!  c #914E23",
"~  c #845322",
"^  c #8C5425",
"/  c #8E5926",
"(  c #955226",
")  c #995527",
"_  c #965A24",
"`  c #9C5A26",
"'  c #975428",
"]  c #9D5729",
"[  c #9E5929",
"{  c #A25C2A",
"}  c #9D6229",
"|  c #A5612B",
" . c #AA652D",
".. c #A7682D",
"X. c #AE6A2E",
"o. c #B16D2F",
"O. c #B4702F",
"+. c #B36F30",
"@. c #B57130",
"#. c #B87330",
"$. c None",
/* pixels */
"$.$.$.$.$.$.$.$.$.$.$.$.    . + @ + = 0 g 0 : ; < 0 0 0 +       $.$.$.$.$.$.$.$.$.$.$.  . . X % < q g h g g e 0 q <   $.$.$.$.$.",
"$.$.$.$.$.$.$.$.$.$.    % h P U K H x l g g l i g g h l l l l q < % 5 G $.$.$.$.+ : q G H P U U ~ ~ U P K K K U U H z 6 + $.$.$.",
"$.O @ : * #   $.$.    % P X.@.@.o.o.o.o.X.o.o.o.o.X.O.O.o.O.o...} ^ l : < .   ; H _ ..#.#.#.@.o.X. .| | { { { ] [ [ [ ( V : $.$.",
"@ B I W W D q o   # + V o. .{ { { [ [ ] _ _ ] { | | | | { | | { | | [ H % X l } @.+.+.| | | { [ [ ' ` ` ] ] ] ] [ [ ] ] ] D , $.",
"d ( ] ] ] ' W h $ e # C o. .[ ` { | [ J N A A J L T ! _ [ ] ] ] [ [ [ E % l ..O.+.+.{ ] ] ] ] ] ] ] ] ] ] ] ] ] ] ] ] ] ] ) f > ",
"5 ( ] [ | | ] ^ j 5 + d ` [ ] ] ..O.X.J M M N M M N A Y ] ] ] ) ' [ ' B g } O.O.X.{ ] ] ] [ ] ] ] ] ] ] [ ] ! Y W ] ] ] ] { D : ",
": W [ X.@.@.+.o.[ l + + I [ ] [ O.O.O.R M M M M M M M A ) ] ] ] [ ' V q | @.O. .{ ] ] ] ] ] ] ] ] ] ] ] ] ] L M Z ! ] ] ] ] W < ",
"# C | @.@.@.@.@.#._ f X h ' ] [ O.O.O._ M M M M M A L ! ) ] ] { ( c 0 / O.o.| [ [ ] ] ] ] ] ] ] ] [ ] ] ] Q A M Z Y { ] ] ] D # ",
"o h ..O.o.| o.o.@...J q @ L [ [ o.@.@.| A A A M L { o.+.] ] ] ] B e / O.X.{ ] ] ] ] ] ] ] ] ] ] ] ] ] { ! D M Z Z F ) { { Q 4 6 ",
"$.5 ..o.) Y J Y T J A s @ C ' ]  .@.@.o.T A J _ o.+.+.{ ] ] ] Q < ~ o.X.] ] ] ] ] ] ] [ ] ] ] ] ] ] ] Q S M M M Z A ( { Q d 6 Q ",
"$.< | | A M M M N M m 3 d ( [ ] { +.@.@.X.| o.O.O.O.+.{ ] ] { D 5 [ O.X.] ] ] ] ! Y L T ! ' ] [ ] ( Y A Z Z M M Z Z ( ( j 5 W ] ",
"$.% W L Z M M M N M y @ I ] ] ] ] X.@.@.O.O.O.O.O.o.{ { ] ] { D 0 ` O.o.{ ] ) T A Z M Z A F R ! R S Z M Z Z Z M Z A ( C : I ] ] ",
"$.& z A M M M M A a O j ' ] ] ] ] { o.#.O.o.o.o.| { ] ] ] ] { W , W +.+.] ( Y M Z Z M Z M M M A Z Z Z Z M M M M Z F I > z ] ] ] ",
"$.: i M M M Z Z b * q Q ' [ [ ] ] ] { { | o. .{ [ ] ] ] ] ] ] ) d V [ [ Q A M M Z M M M M A M Z Z Z M Z Z M Z M Z N f < W ] ] ] ",
"$.> 3 m M M M v 1 2 M S R ) ] ] ] { ] ] { ] ] ] ] ] ] ] ] ] ] ] V 6 I F M M M M M Z M Z M M M M Z M M M M M Z M Z k * z ] ] ] ] ",
"$.$., y p t 6 * @ v A M Z S Q ' ] ] ] ] ] ] ] ] ] ] ] ] ] ] ] ] ! q y M M M M M M M M M M M M M M M M Z Z M M Z Z p $ E ] ] ] ] ",
"$.$.e > +   + @ 3 M Z M M M A Y ! ] ] ] ] ] ] ] ] ] ] ) ! Y L Y Y B - a Z M M M M M M M M Z Z Z M Z M M Z Z Z Z Z p @ E { ] ] ] ",
"$.$.+ 0 z f + + u M M M A A Z M A Q ' ] ] ] ] ] ] ] ) Y A M M M Z M t - b Z M Z Z M Z M Z Z Z Z M Z M M Z Z Z Z Z t   d ! ] ] ] ",
"$.. q Q [ Q 5 + t M M Z M Z Z M Z A F Q ) ' ] ] ` ! J Z M M M M Z M m - u Z M M M M M M M M m n k a t t d a n n s - > = B ] ] ] ",
". : E ] ] ] C & 2 M M M M M M M Z M M M A Y ! ( Y A A M M M Z M Z M Z 2 - m M M Z M Z M k 6 - > < < > - = = * - - 4 K B : W ] ] ",
"O j ] ] { | [ B : a Z M M M M M M M M M Z Z A A Z M M M M M M M M Z Z t O s M M M M k 2 $ e B D I I E E W Q W E W ! ] ! 6 d ( ] ",
"+ K { ]  .@.X.' j @ s M Z M Z M M M M A A Z M M M M M Z Z M Z M M M Z a X t M M n t * d I ' { ] { [ { ] ] ] ] ] ] ] ] ] K : C ] ",
"$ Q [ ]  .@.X.( ! d = n Z M M Z M M M Z M M Z M Z M M M M M M Z M Z M s O 3 m k 4 h D ' ] ] ] ]  .X. .{ ] ] ] ] ] ] ] ] ' z - I ",
": Q ] ] X.#.X.Y ! W 4 2 m Z M M M Z M M Z M Z M M M Z M Z M M M Z Z A m * 4 a - m ' ] ] ] ] ] | +.+.+.X. .] ] ] ] ] ] ] ] W = k ",
": Q { ] X.@.@.L J ) K - t Z Z Z N M M Z M A M M M M M Z M N Z Z M M M M 6 . = B ] ] ] ] ] ] ]  .@.@.+.+.+.{ ] ] ] ] ] ] ] ] d d ",
": Q ] ]  .@.@.T M Q ] C * u Z Z Z M M M M M M M M M M M M Z M M A M M m y @ C ] ] ] ] ] ] ] ] o.@.@.@.#.+. .] ] ] ] ] ] ] { B > ",
"$ ! ] ]  .@.O.T M Y ] ' c * n Z M A M Z M Z M M M Z M Z M M M M M M m u X j ( ] ] ] ] ] ] ] [ +.@.@.#.+.#.o.[ ] ] ] ] ] ] ] D $ ",
"$ Q ] ] | @.@.T M A ( { ! d 5 m M M M M M Z M M M N M M M Z M N M A a % % L [ ] ] ] ] ] ] ] { +.@.@.+.+.+.+.{ ] ] ] ] ] ] ] Q > ",
"* ! ] ' | +.+.Y M M W { { Y 4 d m A Z M M M M M Z M M M M Z A A N f @ 7 e Q ] ] ] ] ] ] ] ] | @.@.@.@.@.+.+.{ ] ] ] ] ] ] ] ] j ",
"+ D { ] { +.+.L M M F ] ] ] D - u M N M M Z M M M M Z Z M M m k 4 O : 9 d ( ] ] ] ] ] ] ] ]  .@.@.@.@.@.#.+.| ] ] ] ] ] ] ] ] I ",
"$.d ' [ { +.| S M Z F ) ] ] ' C > u m M M M M M Z M M Z M b u = 4 f 0 # q ' ] ] ] ] ] ] ] ] X.+.+.@.@.@.#.+. .] ] ] ] ] ] ] ] ] ",
"$.: ! ] ] | { ! F F ! ] ] { { ' C = a A M Z M A M Z A m p ; < a M E Q f > ! { ] ] ] ] ] ] ] +.@.+.@.@.@.+.#. .] ] ] ] ] ] ] ] ] ",
"$.+ D ] ] ] ] ] ] ] [ { o.o. .[ ] z > j M Z M M M m h < : c L A M M Y B - Q ] ] ] ] ] ] ] ] o.o.o.@.o.o.X.X.{ ] ] ] ] ] ] ] ] ( ",
"$.  9 ! [ ] ] ] ] ] ]  .@.@.+. .] ! j : 5 6 5 4 : * + ; W  .T N M M A B < Q ] ] ] ] ] ] ] ] { { { { { { ) { { { ] ] ] ] ] ] ] Y ",
"$.$.- A ! [ ] ] ] ] ] X.@.@.@.o.{ { ' I z f 0 9 9 & = I O.@.T N M M A D 9 Q ] ] { ] ] ] ] ] ] ] ) ) ] ] { ) ) { ] ] ] ] ] ] Q Z ",
"$.$.> M S ' [ ] ] ] { X.@.@.@.@.+.{ ] ] ] ( j $ w # x { @.O.L M M M F Q 5 I ] ] ] ] ] ] ] ] ] ] { { ] ( Q Q R W R Q R Q R Y Z Z ",
"$.$.6 A M F ( ] ] ] ] | o.O.#.#.+.{ ] ] ] ] E , : > Q | @.X.J M Z A Q ( d V ] ] ] ] ] ] ] ] ] ] ) ) R A Z Z M M M M M M Z Z Z Z ",
"$.o 6 A M M A ! ] ] ] { |  .o.o.+.{ ] ] ] ] ' B X < !  .@.X.L N Q ] { ] z j ) ] ] ] ] ] ] ] ] ] ) ! Z M Z Z Z M Z M Z Z Z Z Z Z ",
"$.o y Z M Z Z A R ) ] ] ] [ { { { ] ] ] ] ] ] ! 5 , Q  .@.+.' Q X.o. .{ D 4 N E ) ] ] ] ] ] ] ] ! S Z Z M M M M M M Z Z Z Z Z n ",
"  + k Z M Z Z Z Z S R ( ] ] ] ] ] ] ] ] ] ] ] ] C * E  .@.@.+. .O.O. .] Q 6 t A S ! ] ] ] ] { ( F Z Z M M Z Z M M Z Z Z Z Z p - ",
"+ u M M M Z M M M N Z S R ( [ ] ] ] ] ) ) ] ] { ( 6 z ] ..+.+.@.@.@.X.[ ' c = b Z A T ( ] ] ! S Z M Z M M M M M M M M M Z s @ 1 ",
"+ k Z Z M M Z M Z M M M Z S Q ] ) ! T L F W ) ] ] B 5 ! [ | +.+.@.@. .] ] T 2 6 M Z Z A J Y A A M M M M Z M Z M M Z Z Z m - = v ",
". y A Z M M M M M Z M M Z M A L F A M Z Z A ! ] [ I : E [ [ | o.@.o.| ] ] T s = u M Z Z M Z Z Z M M Z M M M M Z M M M Z s * a Z ",
"$.- m A Z M Z M M M Z Z Z M Z M M Z M M Z Z F ) [ Q > D [ ] ] {  .| [ ] R A N a * y M M M Z Z Z M Z M M M Z M M M Z M Z a * n Z ",
"$.O s Z M M M Z M Z M M M M M M M Z Z M Z M Z ! { Q 4 B [ ] ] ] ] ] ] ( S M Z N 2 . q m Z Z Z Z M M M M M Z M Z M M M Z k O 6 Z ",
"$.  u Z M M N M M M N Z M Z M Z M M M M Z M Z F ( F = u J R ( ] ] ] ) J M M M Z u . + 4 s M Z Z M Z M Z M M M M M Z M Z u   + a ",
"$.$.2 A M M M M M Z M M Z M M N M Z Z M Z M Z Z S v @ t Z A A Y ! ( Y Z M M M Z s $ 9 & @ 6 s m M Z Z M M Z M M Z M M M t   # - ",
"$.$.= v s v M M M M Z Z N M Z M M M M M M Z Z Z A s O y M Z M M A A M M M M M Z b @ 8 : : + O = 6 u k m M m M M M M M M 6 . w # ",
"$.$.  = q 5 u m Z Z Z M M M M M M M M Z M M M M Z u . y M M A M M Z M Z Z M Z Z s $ $ > t a p 2 1 * @ = - 3 3 y i a p 2 @ O w 9 ",
"$.  @ K ' W < f Z Z M M M Z M Z M M M M M Z M M Z 5   y Z M M M M M M M M M Z Z s X t n Z Z M M M v s u y 3 < - = = = - u 2 8 r ",
"$.  f { ' { C % j Z Z M M Z M M M M M M M M M A b *   t Z M Z Z M Z M M M Z M Z p * m Z Z Z Z Z M M M M Z M m m m m m M Z a + w ",
"$.  j { ] ] ( f * k Z Z M M M Z M M M M M Z M Z u @ $ * v Z M Z M M Z M M M Z M 5 t Z Z Z Z Z Z Z Z M M Z Z Z N A Z A Z M m = 9 ",
"$.o z ] ) T F m = 5 M M M M M Z M M M M M Z Z v * @ *   - v Z Z M M M M Z Z M y 1 m Z S ! Y Z Z M M M N Z A A S F Y Y S Z N 3 % ",
"o q M Q Y M M m - @ b Z Z M M M M M M M M Z v = . u b y O - b Z Z Z Z Z m s 3 - s Z S ! { { ! ! T L Y T R ( [ | | |  . .[ S 3 + ",
"O k A Z M M M M a . u M M M M Z M M Z Z m u = * t b Z Z a O 2 a s p u y 2 - 3 v Z F ! | +.+.X.+.o.o.o.+.O.O.#.@.@.@.@.@.@.E % % ",
"O k Z Z M M M M a O = m M M M M M M k f > * t n Z Z Z M A 3 . > + + - 3 p v M A R ]  .@.@.@.@.+.O.O.#.@.O.O.@.@.@.+.+. .^ 5 u m ",
"O b Z Z Z Z M M 3 O O 5 u a j u y 5 * 4 u s M M Z Z M Z A a + : 2 s m M M Z S ! { X.+.@.@.@.#.+.+.+.+.X.X. . .| | { ] Q d a Z Z ",
"O s Z Z Z Z v t @ > = @ @ @ * = 4 t k m M Z Z Z A Y S M Z u . 6 m M M M A Y ) { +.@.@.+.X.X. .{ { { ] ] { ] { ] ] { ' k k Z M M ",
". - p s a 3 * - a s v v b m m m M Z Z Z Z Z S T ) ] Q Z M 1 - n A Z M A Y ]  .o.@.@.#.X.{ ] ] ] ] ] ] ] ] ] ] { { ( j j Z M M M ",
"$.  . @ @ O 1 m A Z Z Z Z Z Z Z Z Z Z Z L Q ) ] ] ] ) A v = s M M M A T { o.O.#.@.@.+.{ { ) ] ] ] ] ] ] ] ] ] ' K d @ M Z M Z M ",
"$.$.$.$.= = m Z F Y T Y Y F F F L R Q ( ] ] ] ] ] ] ] Y > y M M M Z Y { o.@.@.@.+.+.{ ] ] ] ) { ] ] ] ] ] ] ' B : 4 q u M Z Z Z ",
"$.$.$.. @ s F ! ] ] ] ] ] ) ] { ] ] ] ] ] ] ] ] ] ] ] V = n Z Z M A Q  .O.@.@.@. .{ { ] ] ] ] ) ] ] ] ] [ ! h + 6 m m t 6 m M Z ",
"$.$.= O p Z Q ) ] ] ] { { | o.o.| ] ] ] ] ] ] ] ] ] ) q 6 M M M Z S ! { X.X.o.| ] ] ] ] { ) { ! ! ! ( ] L 5 + u M M Z m a 2 - t ",
"$.$.@ 3 M Z Z Z W {  .+.#.#.o.o.X.{ ] ] ] ] ] ] ] ] Q = a Z M M M A R ) ] ] ] ] ] ] ] ] ] ) W A Z Z S D = O p M M M Z Z Z m u 5 "
};
