/* XPM */
static char *result[] = {
/* columns rows colors chars-per-pixel */
"64 64 115 2 ",
"   c #000000",
".  c #0C0502",
"X  c #0E0805",
"o  c #0B0808",
"O  c #110702",
"+  c #180701",
"@  c #140B05",
"#  c #1A0D05",
"$  c #150E0A",
"%  c #161000",
"&  c #1D1105",
"*  c #220E04",
"=  c #221205",
"-  c #2D1506",
";  c #271902",
":  c #241409",
">  c #2A170B",
",  c #2D190D",
"<  c #321C07",
"1  c #3C1C06",
"2  c #351E0D",
"3  c #3B1E0C",
"4  c #2E2201",
"5  c #322501",
"6  c #352801",
"7  c #3C200E",
"8  c #3E2312",
"9  c #44230C",
"0  c #4A260D",
"q  c #4D290C",
"w  c #422411",
"e  c #4F2D16",
"r  c #502D16",
"t  c #5A2F13",
"y  c #5B3115",
"u  c #52341F",
"i  c #623416",
"p  c #6E3611",
"a  c #623A16",
"s  c #623518",
"d  c #65391D",
"f  c #6A3C1E",
"g  c #733E16",
"h  c #713E1D",
"j  c #7A3F18",
"k  c #492F20",
"l  c #493020",
"z  c #503220",
"x  c #583620",
"c  c #5D3820",
"v  c #6D3F23",
"b  c #73411F",
"n  c #78431F",
"m  c #795917",
"M  c #74511A",
"N  c #764321",
"B  c #784421",
"V  c #7E4A26",
"C  c #80451C",
"Z  c #84491B",
"A  c #8B591D",
"S  c #915E1B",
"D  c #917D00",
"F  c #9F7E00",
"G  c #946117",
"H  c #9D6B17",
"J  c #94621A",
"K  c #9B6818",
"L  c #A6790F",
"P  c #A26A16",
"I  c #AA7E10",
"U  c #B87D11",
"Y  c #814A25",
"T  c #8D4E24",
"R  c #814C28",
"E  c #894F2A",
"W  c #904F25",
"Q  c #8D522C",
"!  c #945226",
"~  c #90542E",
"^  c #9D5729",
"/  c #9E5829",
"(  c #A15A2A",
")  c #A6612C",
"_  c #AB662E",
"`  c #AE6B2D",
"'  c #B36F2F",
"]  c #B5712F",
"[  c #B67131",
"{  c #AB8901",
"}  c #AF8412",
"|  c #B28012",
" . c #B88511",
".. c #B98D14",
"X. c #BC9210",
"o. c #C1860E",
"O. c #C19513",
"+. c #C9A101",
"@. c #DFA107",
"#. c #DDB000",
"$. c #E4A506",
"%. c #E1AC07",
"&. c #E6B205",
"*. c #E3BF06",
"=. c #E4B308",
"-. c #FFBB00",
";. c #E4C001",
":. c #F0C504",
">. c #FEC300",
",. c #F6CD02",
"<. c #FFCB00",
"1. c #FDD501",
"2. c #FEDD00",
"3. c #FFE100",
"4. c None",
/* pixels */
"4.4.4.4.4.4.4.                                                                                                  & , . 4.4.4.4.4.",
"4.4.4.4.4.4.4.                                                                                                  9 b y 3 O 4.4.4.",
"4.O # : * .         . X # # & > & = & & > & & = # > & & = & > & # & X X X X X X @ & & : & & : & > # # : # #     9 y i ! d > 4.4.",
"# s C Y Y           8 Q Q ~ Q Q ~ Q ~ ~ Q Q Q Q Q Q ~ ~ Q Q Q ~ ~ Q ~ Q Q Q Q ~ Q ~ Q Q ~ ~ Q Q Q ~ ~ Q Q w           ^ ^ h > 4.",
"w ! ^ ^ ^           8 ~ Q ~ ~ Q ~ Q ~ ~ Q Q ~ Q ~ Q Q ~ Q ~ Q Q ~ Q ~ Q ~ ~ Q Q Q ~ ~ Q ~ ~ ~ ~ E ~ ~ Q ~ 8           ^ ^ ^ w > ",
"2 ! i # # .   O > > d V Y V Y Y V V R Y V V B B V B B B B V V B B B B B B V V B V M V B B B V V V Y V V Y d > > .   . # + i b : ",
": Y 9         . ~ ~ B B N B B B B B B B B B B B B B B B B B B B B B n B B B B B B B B B B B B B N B B B B V Q ~ .         9 Y , ",
"$ v 0         O ~ ~ V B B B B B B B B B B B B B B B B B B B B B B B B B B B B B B B B B B B B B B B B B B V ~ ~           0 f # ",
"o e a     v Q E B B B B N B B B B B B B B B B B B N B B 1.3.2.2.3.3.3.*.B B B B B B B B B B B B B B B N B B B B Q ~ v     r < 3 ",
"4., a     b ~ Q B B B B N B B N B B B B B B B B B B B V 1.2.2.3.3.3.3.*.B B B B B B B B B B B B n B B N B B B B E ~ N     : 3 T ",
"  @ 9     v E R B B B B B N N N N n B B N N B b N S } } ,.1.1.1.1.1.1.:.} } A B B N N N N N B N N N B B N B N N Y E d     X 0 t ",
"          e B B B B B B N B B B B B B B B B B B B X.3.3.<.,.<.<.<.<.<.<.3.3.J B B B B B B B B B B B B N B B B B B B r           ",
"          r B B B B B B B B B N B B B B N B B B B X.3.3.<.<.<.<.<.<.<.<.3.3.J B B B B B B B B B n B B B B B B B N B r           ",
"    X > : d B B N N N N B N N N B B B N N B B B N } 1.<.<.<.<.<.<.<.<.<.<.<.H B N N N N B N B N N B N N N N N B N N v : > #     ",
"    @ B B B B B B B B B N B B B B B N B B B B B N  .<.<.<.<.<.<.<.<.<.<.<.<.S B B B B B B B B B b B B B N B B B B B B B N :     ",
"    @ B B B B B B B B B B B B N B B B B B B B B B  .<.<.<.<.<.<.<.<.<.<.<.<.A B B B B B B B B B B B B B B B B B B B B B N &     ",
"                                                                                                                                ",
"                                                                                                                                ",
"                                                                                                                          + # # ",
". > Y ^ ^                                                                                                             s - Y ( ^ ",
". t ^ ^ (                                                                                                             W 3 w ! ^ ",
"@ n ( ^ _ a r -                                                                                                 * 1 9 ^ h * d ^ ",
"# T ^ ^ _ ] ` 0                                                                                                 9 ^ ^ ^ ^ r < Y ",
": T ( ^ _ ] ' 1                                                                                                 3 ^ ^ ^ ^ T * t ",
": T ^ ^ _ [ [ n n ^                                                                                         ^ ^ ^ ^ ^ ^ ^ ^ w 9 ",
"= T ( ^ _ [ ] Z p W                                                                                         ^ ^ ^ ^ ^ ^ ^ ( i : ",
"= T ^ ^ _ ] [ g 1 0 +                   .                                           .     .     .     .   O y t T ^ ^ ^ ^ ( h # ",
"# T ^ ^ ) [ ' q                                                                                                 t ^ ^ ^ ^ ( T , ",
"# W ^ ^ ( [ ' 0                                                                                                 t ^ ^ ^ ^ ^ ^ r ",
"@ h ( ^ ( < = +     # : > : : @ @ @ @ $ & 2 , , 2 , , , , , > , , , , > 2 , , , , , 2 > , , : : & # $ > > &     * # - ^ ^ ^ ( B ",
"4.w ^ ^ (           : e e e r e r r r r r r r r e e r r e r r r r r r e r r r r r r r r r r r r r r r r e :           ^ ^ ^ ( ! ",
"4.: W ^ ^           > e e e r e r r r r r r r r r e r r e r r r r r r e r r r r r r r r r r r r r r r e e >           ^ ^ ^ ( ^ ",
"4.o -         . r r r r e r r r r r e r r r r r r e r r e r r r r r r e r r r r r r r r r r r r r r r e r r r r .         9 ^ ! ",
"4.. O         . r r r r e r r r r r r r r r r r r e r r r r r r r r r e r r r r r r r r r r r r r r r e r r r r .         9 ^ C ",
"    .     O . @ r r r r r r r u r r r r r r r e r e r e r r r r r e r e e r r r r r r r r r r r r r r r e r r r @ . X     9 i 0 ",
"          2 r r r r r r r r r r r r r r r r r r r e r r r r r r r r r e r r r r r r r r r e r r r r r e r r r r r r 8     #     ",
"          2 r r r r r r r r r r r r r r r r r r r e e r r r r r r r r e r r r r r r r r r r r r r r r e r r r r e e 9     +     ",
"    . # # w r r r r r r r r r r r r r r r r r e r e r r r r r r r r r e r r e r r r r r r r r r e r r e r r r r e e e : : @     ",
"    X r r r r r r r r r e r r r r r r r r r r r r e r r e r r r r r r e r r e r r r r e r r e r e r r e r r r r e e r r r @     ",
"    O r r r r r r r r r e r r r r r r r r r r r r e r r e r r r r r r e r r e r r r r r r r r r e r r e r r r r r r r r r @     ",
"    & R R R R V R R R R R R R V R R R R V R R R R O.3.3.3.3.2.3.2.2.3.2.3.3.O.R R R R V R R R R Y R R R R R R R V R R R R #     ",
"    $ V R R R V R R R R V R R V R R R R V R R R R O.3.3.2.3.2.3.3.2.3.2.3.3.O.R R R R V R R R R V R R V R R R R V R V R R $     ",
"    & V V V V V V V V V V V V V V V V V V V V V V ..2.2.1.1.;.D D ;.1.1.2.2.O.V V V V V V V V R V V V V V V V V B V V V B #     ",
"    & B N B B B B B N B N B B B B B B B N N N V B X.3.3.<.<.#.    #.<.<.3.2.X.B B B B B B B B B B B N B B B B B B B N N B $     ",
"    # B N N B B B B B B N B B B B B B N B B B B V X.2.3.<.<.#.    #.<.<.3.3.X.B B B B B B B B B B b B B B B B B B B B B B $     ",
"    @ z z c c x z z z z z c c c c c c c c c c c u } -.>.<.<.+.  . { <.<.>.>.I z l c c c c c c c u v v u c c c c x z z l z @     ",
"    O l l l k k l l l l l l l l l k l l k l k k k L -.-.<.<.#.    F <.>.-.-.L l l l l l l l l l k k e k l l l l l l k k l X     ",
"    o l l l k k l l l l l l l l l k l l k l l k k L -.-.<.<.#.    F <.<.-.-.L l l l l l l l l l l k k k l l l l l l k l l X     ",
"    $ B B B B B B B B B N B B b B B B B B B B B B U -.-.-.-.-.-.-.-.-.-.-.-. .B B B B B B B N B N N N N B B B B N B B B B @     ",
"    $ B B B B B B B B B B B B B B B B B B B B B B U -.-.-.-.-.-.-.-.-.-.-.-.U B B N B B B B B B N N N N B B B N N B B B B @     ",
"    # B B B B B N N B N B B B b B n B B N N B b B P  .o.@.$.$.$.$.@.$.@.o.o.P B B B B N B B B B N B N N B B B B N N B N B #     ",
"    $ B B B B B B B B B B B B B B B B B B B B B B B B n B B N n B B B B B B B B B B B B N B B B B B V N B B B B B B B B B #     ",
"    # B B B B B B B B B N B B b B B B B B B B B B B B B B B V n B B B B V B B B B B B B B B B B N B B B B B B B B B B B B #     ",
"    4 &.&.=.&.@.&.&.M z z z l z z z z z z z z l u z z l z z z z z z z z l l z l z z z u z z z z z l z z z M &.&.%.&.=.=.=.5     ",
"    4 <.<.<.<.<.1.<.m l l l l l l l l l l l k k l l l l l l l l k k k k l l l l k k e k l l k l l l l l l m 1.<.<.<.<.<.<.4     ",
"    4 <.<.<.<.<.<.<.m l l l l l l l l l l l k k l l l l k l l l l k k k l l l l k k k k l l k l l l l l l m <.<.<.<.<.<.<.4     ",
"    4 <.<.<.<.<.<.<.K B B B B B B B B B B B B B B B B N B B B B B B B N B B N B B B B B B B B B B B N N B K <.<.>.<.<.<.<.4     ",
"    4 <.<.<.<.<.<.<.K B B B B n B B B B B B B N B N B N B B N B B B B N B B B B B N N B B B N N n N B N B K <.<.<.<.<.<.<.4     ",
"    5 >.>.>.>.>.>.>.J b N N N b b b b N b N b b b b N N b b N N N h N N v N N h h N N b h N N N b N b N N S >.>.>.>.>.>.>.6     ",
"    4 -.-.>.-.-.-.-.G f f d f d d v d f d f d v d v d f f d f f d v d f d f f f f f d f v d d d f d f f f G >.-.-.-.>.-.-.4     ",
"    4 -.-.-.-.-.-.-.G d f f f f f f f f f f f f d f f f f f f f f v f f f f f f f f f f f f f d f f f f d G -.-.-.>.-.-.-.4     ",
"    . % % & & ; ; ; = # # # # = # # # + = @ # # # = # X X O @ O O + @ = & # > & # # # = # # # # = # @ = & & % % & % & % % O     ",
"                                                                                                                                ",
"                                                                                                                                "
};
