/* XPM */
static char *result[] = {
/* columns rows colors chars-per-pixel */
"64 64 213 2 ",
"   c #040201",
".  c #0C0603",
"X  c #0D0807",
"o  c #110702",
"O  c #140A04",
"+  c #1C0D05",
"@  c #140D0A",
"#  c #1D1108",
"$  c #161518",
"%  c #0E1318",
"&  c #231106",
"*  c #2C1506",
"=  c #241309",
"-  c #2A1609",
";  c #2C1A0C",
":  c #261809",
">  c #331C0B",
",  c #3B1E0B",
"<  c #331807",
"1  c #231E1E",
"2  c #261812",
"3  c #200F05",
"4  c #3C220E",
"5  c #34200D",
"6  c #342317",
"7  c #241F20",
"8  c #291E2C",
"9  c #1D242B",
"0  c #262123",
"q  c #2B2125",
"w  c #2C222A",
"e  c #26282A",
"r  c #33242C",
"t  c #3A2829",
"y  c #2A2C35",
"u  c #262C36",
"i  c #362631",
"p  c #392732",
"a  c #342C34",
"s  c #3B2833",
"d  c #372E39",
"f  c #2A333E",
"g  c #2B393C",
"h  c #27333B",
"j  c #33353E",
"k  c #3B353B",
"l  c #35393E",
"z  c #3D3A3E",
"x  c #333237",
"c  c #393228",
"v  c #411F09",
"b  c #44220B",
"n  c #4D260D",
"m  c #4E280E",
"M  c #53290D",
"N  c #5B2D0F",
"B  c #51270D",
"V  c #442410",
"C  c #4B2B13",
"Z  c #472817",
"A  c #532D14",
"S  c #5C2E10",
"D  c #5B3216",
"F  c #583316",
"G  c #62300F",
"H  c #643211",
"J  c #6E3712",
"K  c #6B371A",
"L  c #6C3B1C",
"P  c #683817",
"I  c #703712",
"U  c #723913",
"Y  c #763E19",
"T  c #602F0F",
"R  c #442A29",
"E  c #522B23",
"W  c #46322A",
"Q  c #5A362B",
"!  c #583526",
"~  c #432B35",
"^  c #4B2D34",
"/  c #452D3A",
"(  c #4B2E39",
")  c #463637",
"_  c #4C3534",
"`  c #4E313D",
"'  c #443B3C",
"]  c #483838",
"[  c #53333E",
"{  c #593637",
"}  c #623625",
"|  c #663927",
" . c #6A3E3B",
".. c #633835",
"X. c #713F2A",
"o. c #2A413F",
"O. c #74421E",
"+. c #7C421B",
"@. c #77471D",
"#. c #6B421B",
"$. c #4A453D",
"%. c #5D4435",
"&. c #56453C",
"*. c #7B4B20",
"=. c #7B4423",
"-. c #65453A",
";. c #694839",
":. c #7C4B34",
">. c #784735",
",. c #66402B",
"<. c #293540",
"1. c #2A3C43",
"2. c #333A41",
"3. c #3B3C42",
"4. c #373540",
"5. c #433843",
"6. c #4C3B44",
"7. c #5C3642",
"8. c #5A3742",
"9. c #643A44",
"0. c #6B3C45",
"q. c #6D3E49",
"w. c #713F47",
"e. c #2A4246",
"r. c #2C4846",
"t. c #2B4549",
"y. c #2D4C4C",
"u. c #344C4B",
"i. c #364748",
"p. c #2D514F",
"a. c #315D4E",
"s. c #37514E",
"d. c #2F5552",
"f. c #2F5853",
"g. c #315D52",
"h. c #305552",
"j. c #34694D",
"k. c #3B7C4F",
"l. c #39744F",
"z. c #336452",
"x. c #356B51",
"c. c #377251",
"v. c #397550",
"b. c #397950",
"n. c #484843",
"m. c #4F534C",
"M. c #74414B",
"N. c #7C444E",
"B. c #79474A",
"V. c #6A4D50",
"C. c #714A4C",
"Z. c #437D4E",
"A. c #40724F",
"S. c #83451D",
"D. c #87491E",
"F. c #844923",
"G. c #8C4D24",
"H. c #854A29",
"J. c #904F24",
"K. c #8B5226",
"L. c #945226",
"P. c #95542C",
"I. c #9D5729",
"U. c #9E5929",
"Y. c #9A5626",
"T. c #854D32",
"R. c #885435",
"E. c #985E34",
"W. c #A15B2A",
"Q. c #9D6132",
"!. c #A5612B",
"~. c #AA652D",
"^. c #AD6A2E",
"/. c #A7682D",
"(. c #B16D2F",
"). c #A76731",
"_. c #B56F30",
"`. c #B57130",
"'. c #B87330",
"]. c #844B4A",
"[. c #854A53",
"{. c #8C4D54",
"}. c #804650",
"|. c #914F57",
" X c #945354",
".X c #9A5655",
"XX c #945158",
"oX c #9B555A",
"OX c #9D5856",
"+X c #A45B5A",
"@X c #AA5E5D",
"#X c #AD615D",
"$X c #A7605B",
"%X c #B1635F",
"&X c #B66660",
"*X c #B86761",
"=X c #BD6A62",
"-X c #C06C63",
";X c #63AB3F",
":X c #3F814E",
">X c #42844D",
",X c #46894C",
"<X c #4A8D4A",
"1X c #4A834C",
"2X c #4E9249",
"3X c #529747",
"4X c #559A46",
"5X c #599E45",
"6X c #519548",
"7X c #5DA343",
"8X c #60A741",
"9X c #61A940",
"0X c None",
/* pixels */
"0X0X0X0X0X0X0X0X0X0X0X0X    . O + O # 5 C 5 : : > 5 5 6 $ % % $ 0X0X0X0X0X0X0X0X0X0X0X    . X + 5 4 C C C C 4 4 4 : . 0X0X0X0X0X",
"0X0X0X0X0X0X0X0X0X0X    # C @.*.O.L F F C C A c c c ~ t.e.t.t.t.t.t.t.y.e.0Xu u 9 : 4 #.#.@.*.*.K.*.*.@.O.O.O.@.*.#.D > o 0X0X0X",
"0X. + = # +   0X0X    # @./.'.`._._.(.(./.;.:.u.y.p.y.v.v.v.c.v.c.c.c.c.c.d.y.y.y.%.-.`.'.`.`.`.^././.Q.W.W.I.W.U.U.U.L.P ; 0X0X",
"+ P =.F.F.O., .   O X P `./.!.W.W.P.T.3.o.h.g.x.>Xk.>X7X7X9X8X9X8X8X8X9X7X:X:Xb.z.f.f.5.n.T.U.Y.U.Y.Y.Y.I.I.I.I.U.U.U.I.P.L ; 0X",
"V L.I.I.I.Y.F.C & 6 @ #.(.~.U.I.R.i.t.h.z.>X<X4X9X9X;X;X;X;X;X;X;X;X;X;X;X;X;X;X5X<XZ.x.f.t.i.P.U.U.I.I.I.I.I.I.I.I.I.I.I.I.C = ",
"> L.U.U.W.!.U.L.A > O b Y.W.P.;.n.f.l.Z.k.4X;X7X;X;X;X;X;X;X;X;X;X;X;X;X;X;X;X;X5X;X5Xb.Z.c.f.i.;.P.I.I.I.I.J.S.G.I.I.I.I.I.Y = ",
"= F.U./.'.`.(.(.U.A O o =.I.n.y.f.b.>X4X7X:X7X7X;X;X;X;X;X;X;X;X;X;X;X;X;X;X;X;X;X5X:X7X4XZ.b.f.p.n.I.U.I.I.S.J I J.I.I.I.W.H.- ",
"@ X.!.`.`.`.`.`.`.U.C X k e.h.g.v.>X7X;X;X;X;X;X;X;X;X;X;X;X;X;X;X;X;X;X;X;X;X;X;X;X9X;X9X8X:Xb.g.h.1.;.P.J.I J I S.I.I.I.U.L + ",
"X C /.`.^.~.(.`.`./.+.x p.x.v.3X6X2X2X;X;X;X;X;X;X;X;X;X;X;X;X;X;X;X;X;X;X;X;X;X;X;X;X;X;X2X2X3X6Xv.z.y.-.Y J U I Y I.I.W.G.< , ",
"0X; /.(.Y.+.+.S.S.@.] a.v.4X4X,X7X;X7X;X;X;X;X;X;X;X;X;X;X;X;X;X;X;X;X;X;X;X;X;X;X;X;X;X;X7X9X7X,X5X5Xb.f.] J J I U L.I.J.V 4 G.",
"0X; !.!.Y J J J J _ p.h.<X7X2X4X>X<X;X;X;X;X;X;X;X;X;X7X9X;X7X;X;X9X7X;X9X;X;X;X;X;X;X;X;X;X<X,X4X<X7X<Xf.p._ U I I J.Y.A > F.U.",
"0X# F.+.J J J J _ e.p.b.2X:X;X;X;X;X;X;X;X;X;X;X;X;X;X2X3X4X:X7X7X:X3X3X2X;X;X;X;X;X;X;X;X;X9X;X;X;XZ.2Xc.f.1._ I Y L.K # Y U.U.",
"0X+ D U I J I K 1.d.v.7X5X:X7X5X;X;X;X;X;X;X;X;X;X;X;X2X3X:Xk.>X>Xk.:X3X2X;X;X;X;X;X;X;X;X;X;X;X5X7X>X5X7Xc.h.1.K +.Y - D I.I.I.",
"0X= n U J J J K e.v.:X>X>X5X<X9X2X;X;X;X;X;X;X;X;X;X;X9X;X<Xk.:Xk.:X<X;X7X;X;X;X;X;X;X;X;X;X;X2X9X<X5X:X>X>Xc.e.} U Z ; H.W.I.I.",
"0X= , J J J J 2.z.4X;X3X3X;X>X3X7X;X;X;X;X;X;X;X;X;X;X;X;X;X<X7X7X2X;X;X;X;X;X;X;X;X;X;X;X;X;X7X3X>X;X3X3X;X4Xz.k N 3 D I.I.I.I.",
"0X0X= 4 B , t y.Z.6X2Xb.4X3X>X7X4X6X4X;X;X;X;X;X;X;X;X;X;X;X;X;X9X;X;X;X;X;X;X;X;X;X;X;X;X4X2X4X7X>X3X4Xb.6X6XZ.u.R + F.I.I.I.I.",
"0X0X4 ; O . u l.x.k.7X4X:X7X7X>X:X:X9X9X;X;X;X;X;X;X;X;X;X;X;X;X;X;X;X;X;X;X;X;X;X;X;X;X;X9X>Xk.,X5X5X>X4X7Xk.x.l.x O S.W.I.I.I.",
"0X0XO > D t 1.k.v.6X7Xb.2X7X2X3X>X9X;X;X7X;X;X;X;X;X;X;X;X;X;X;X;X;X;X;X;X;X;X;X;X;X;X7X;X;X7X>X3X2X7X2Xb.7X2Xb.k.1.9 V J.I.I.I.",
"0XX 4 G.P.&.a.x.,X,Xk.>X2X>X9X3X7X;X;X;X>X;X;X;X;X;X;X;X;X;X;X;X;X;X;X;X;X;X;X;X;X;X;X>X;X;X;X7X3X;X>X6X:X:X,X,Xx.z.y : D I.I.I.",
". = F.I.P.h j.b.:Xx.k.7X4X:X7X3X9X<X3X;X7X;X;X;X;X;X;X;X;X;X;X;X;X;X;X;X;X;X;X;X;X;X;X7X;X4X<X;X6X7X:X4X7Xk.x.k.v.j.h ! - F.U.W.",
". A I.I.P.t.h.b.x.k.k.k.:X7X,X9X2X7X9X2X9X9X9X;X;X;X9X<X;X;X;X;X9X;X;X;X2X7X;X;X;X9X9X7X2X7X;X<X9X,X7X:Xk.k.b.x.k.f.t.H., V P.I.",
"O =.W.I.Q.e.p.k.v.k.c.x.4X;X>X2X6X4X4X<X9X4X7X;X;X;X6X;X;X;X;X7X7X;X;X;X;X3X;X;X;X7X4X9X<X4X4X3X2X>X;X3Xx.v.:Xb.k.p.1.P.Y # K I.",
"+ G.U.I.;.h a.j.f.b.c.k.4X6Xb.<X4X,X;X<X<X<X;X;X;X5X7X2X;X;X;X7X7X;X;X;X6X7X4X;X;X;X<X<X<X;X>X4X<Xk.3X4Xk.c.v.h.j.a.f -.Y.A - S.",
"= G.U.U.2.f p.1.z.x.v.x.>Xb.>X9X<X,X5X4X:X2X6X>X;X3X7X7X3X;X;X7X9X;X9X3X7X7X3X;X>X6X2X:X5X5X,X2X7X>X:X:Xx.v.x.z.e.y.<.j I.H.= S ",
"= G.I.I.2.y.d.y.k.x.f.k.b.b.v.k.,X7X2X7X<X;X2X:X7X7X7X6X4X5X5X2X;X7X7X3X2X7X7X7X:X6X9X2X7X2X7X,Xk.v.b.b.v.f.x.k.y.p.y.f I.I.4 b ",
"= G.W.I.3.t.<.h.k.f.x.x.x.b.z.b.7X7X,X>X2X6X7X>X,X7X:X;X3X<X:X3X7X>X<X4X9X>X7X,X>X7X6X2X:X,X7X7Xk.z.k.x.x.x.g.b.f.1.y.j I.W.P - ",
"# G.I.-.p.t.y.f.g.x.k.f.c.x.b.:X5X,Xk.4X7X<X;X,X7X4X:X7X3X,X5X6X9X7X,X6X7X:X4X7X,X;X<X7X3Xk.,X7Xb.b.x.x.g.b.x.g.f.y.t.d.-.U.Y @ ",
"+ G.T.u.d.<.<.d.y.p.f.l.x.b.b.b.z.k.<X7X>X<X3X7X:X:X7X,X;X7X5X<X6X7X7X9X,X7X:X:X7X2X2X>X7X<Xk.z.k.k.k.x.v.g.y.y.f.h <.p.u.T.G.- ",
"# J.I.>.<.p.1.h.h t.f.k.z.b.g.x.x.k.x.c.2X5X4X4Xk.3X;X>X3X6Xk.,X7X>X2X3X>X;X3X:X4X4X7X2Xc.x.b.x.x.f.b.x.k.f.e.<.f.e.y.<.>.U.U.A ",
"o Y W.I.3.f.t.1.e.1.f.k.j.b.v.z.v.k.x.k.8X7X,Xk.x.3X6X:X7X6X:X6X5X>X3X7X>X2X3Xx.k.>X7X7Xb.x.k.v.z.v.v.x.k.f.1.e.1.e.h.i.U.U.I.=.",
"0XV P.I.2.p.p.p.e.t.f.v.d.v.v.f.v.k.x.g.5Xk.k.k.z.k.k.k.c.:X7X3X:X7X:Xv.b.k.:Xz.k.k.k.7Xf.c.:Xv.f.v.v.f.c.f.t.e.d.y.y.2.I.I.I.I.",
"0X= J.U.&.1.p.<.t.t.f.f.f.p.x.g.z.k.v.z.k.b.b.h.x.b.k.l.x.7X;Xk.k.7X7Xx.c.k.v.x.f.v.v.k.x.c.b.z.g.x.p.f.f.d.t.t.<.p.e.{ I.I.I.I.",
"0XX X.W.P.<.h u.y.y.y.f.y.1.f.l.k.b.z.x.k.c.k.g.x.x.k.g.v.5X>Xx.b.1X5Xl.f.k.x.x.g.:Xc.k.z.g.b.:Xv.g.1.y.d.t.y.y.y.<.<.P.I.W.I.L.",
"0X  < G.U.>.<.a.y.1.y.y.y.1.z.k.z.v.z.:Xg.z.x.l.x.x.k.g.x.>Xh.z.k.z.:Xx.f.:Xx.c.v.x.z.g.:Xz.v.z.:Xg.1.y.p.d.1.y.h.<.X.I.I.I.P.S.",
"0X0X* U G.:.H.s.<.1.1.e.f.y.t.x.d.1.z.b.f.z.x.b.h.x.z.b.z.z.b.z.z.b.z.z.b.z.x.d.b.c.f.f.:Xx.1.p.x.t.p.f.1.e.1.h s.T.:.W.I.W.J.I ",
"0X0X- J Y >.V.2.1.d.y.e.y.y.1.d.y.1.z.b.x.v.z.f.f.z.v.x.g.g.x.z.l.x.f.z.x.v.z.f.f.z.v.c.b.g.1.y.p.1.t.p.1.y.d.1.k :.n.G.F.S.U I ",
"0X0X, U J Y 6.f 1.1.1.y.y.d.<.1.y.y.y.f.k.c.f.f.b.x.z.g.b.z.g.v.f.f.z.l.f.f.x.b.f.f.c.b.f.y.p.p.1.1.d.y.y.<.e.1.2.} _ U I I I I ",
"0X. , U J %.e.H.j <.d.p.y.1.d.t.p.p.1.y.l.f.d.f.b.x.f.g.b.g.f.c.f.p.z.k.z.f.x.k.h.d.d.c.p.<.p.y.t.d.e.y.p.d.f j P } u.| I I J I ",
"0X. b U J } j Y H.' d.y.1.y.y.1.y.t.y.h t.p.1.y.x.f.y.h.z.d.1.f.p.1.f.z.f.y.f.x.p.1.p.t.<.p.y.y.1.y.t.1.y.d.<.} J } d K I I J G ",
". o S I J J ) K J _ 1.<.<.<.1.d.1.d.1.<.1.t.d.1.f.y.y.f.t.d.1.e.y.1.f.e.d.y.y.f.1.d.t.1.<.<.h.1.p.1.<.<.<.1.) J J } Q I I I B * ",
"O n J J J J ) n.I $.o.g r f 1.h.e.d.<.y.p.t.h.d.d.<.y.t.d.d.1.e.d.1.f.f.t.p.<.d.d.d.1.d.p.<.p.1.f.1.k Q g 1.n.I K u.Q J J N O < ",
"O S J J J J ) ] I &.1.&.! y.<.t.<.h 1.y.1.t.t.d.g y.1.f.y.y.g f.j f y.y.d.1.p.<.d.t.t.e.p.1.<.<.e.$.n.| &.e.%.I K k Q J H * * G ",
". b J J J J n.J J -.l I &.e.E y <.u 8 <.d.p.y.d.e.f.1.y.f.g 0 g i x e.f.y.1.h.e.d.y.p.d.u 8 y h R J n.&.J 2.-.I U ..%.J N + B I ",
"0X* J J J %.t.K U ] j I J 2.J E h 8 8 u d.p.<.d.e.e.f d 2.x i h g q <.1.d k y.1.d.<.p.d.4.p 8 k J J z K J l ] J J } u.L S + H I ",
"0Xo N I U Q g J J J k I J z J J / f s 4.y.<.<.<.h g k r e e 0 s p q f j s 3.t.<.<.<.<.u.4.i y ) J J 1._ J k I J J } 2.L A . , J ",
"0X  b I J J ) K J J k %.J m.K U ~ 2.5.4.s f h <.h g a 0 j x q q 0 w f g e t.y x 1.1.4.( 4.~ i.Q J J l m.%.k J I J Q Q J n . o B ",
"0X0X, I I I ) K J J j $.J s.J J n.d C.1.6./ 2.<.e e q p x e 7 q 0 e u 7 r h q p <.4.8.6.<.4.W $.J L 1.&.' k J I I } Q J v . # - ",
"0X0X& T N D ] n.J J k J J ' L I ) ~ w.<.}.8.( f q r 0 0 7 7 i 7 r q <.r 0 h 7 i <.6.N.[.4.a $ y 4 Z g _ H k J I K y.Q J < . 6 @ ",
"0X0X  & , , W _ J ,.k U J _ n.J I ( oX] oX` N.5.w w p 0 q q 7 7 7 0 o.1 r f r i <.( |.{.M.w.Z < * e.e e * f c b C l ] > + O 6 2 ",
"0X  + O.L.D.1.Z J $.1.J I &.} J ..w.+XM.%X( N.5.q q w 7 1 q p i r i 1 7 w y 8 i <.k $X$X6.N...J J ! $.n b g g * & 2 2 * n < 2 6 ",
"0X  C W.I.I.| 3 M J k J J ' J ..+XXX{.@X&X` N.5.0 7 1 7 1 8 t q r r 0 1 7 h 7 ( 4./ +XV.8.{.#X..J J z J J x P H J H H J I M @ 6 ",
"0X  A I.I.I.L.C & N k J J U |  X=X&X|.}.N.9.[.3.( 1 7 0 ~ ( N.0.w.B./ q 0 e.~ d 5.N.C.5.[.#X=X#X..J I J I k I I J J I I I H & 2 ",
"0XX S U.I.F.Y H + , j %.} Q }.%X=X=X+X9.( [.C.<.( 1 7 r { [ 0.0.0.^  .i 7 1 ~ 6.5.[.8.q.V.&X=X=X X..! I %.k U +.S.S.S.U U I 4 + ",
"X 4 J F.S.J I H < + ! 3. X%X%XoX&X-X@X0.( XX@X6.( 1 0 q R i ^ ^ ^ t R 8 7 1 ~ w.6.|.7.7.oX=X&XoX@X#X+X>.&.H.Y.!.W.!.~.~.Y.+.4 o ",
"o T U U J J J J M . u.].-X%XoX{.{.@Xw.6...oXXXm.[ 0 [ 7.8.9.7.8.8.7.7.7.9.8 ^ [.|.oXw.6.9.+X|.{.|.&X=XOXE.m.'.`.'.'.'.'.'.S.+ & ",
". S U U J J J J B o r [.OX.X X9./ / / M.*X=X%X6.N.w q.q.7.w.w.7.7.w.0.9.w.p 9.|.+X=X=X].~ ( ( [ {..X.X{.].R.'.'.`.`.(.~.K.> b H ",
"o G I I I I I J , o o R Z E E Z R i [ oXoX@X-X@X{.9.( }.}.N.}.N.N.N.}.}.[ 7.[.@X=X%XoXoX0.i E.Q.Q.E.E.E.~.^.~.~.!.W.W.G.V M U J ",
"o N I I I I G v + * & + + + 3 & < 9.%X%X*XXX#X=X*X+X{ ( ( ( ~ ~ ( ( ( ( ^ |.%X=X&XXX%X=X&X}.Q.W.W.W.W.W.I.I.I.I.U.U.L.D S J J J ",
". & B T B v 3 * M N N T H H H H D [.oX@X=X=X+X%X X..F.I J < * G I I I U S.X.].%XoX=X=X#XoX|.T.I.W.I.I.I.I.I.I.I.I.P.F M U I J U ",
"0X. . 3 O . < H U I U I I I I I R =X-X+X+X*X}.}.H.W.L.U G 3 N I I I U S.U.(.(.].w.%X#XXX-X-X{ I.I.I.I.I.I.I.I.I.+.b + H J J J J ",
"0X0X0X0X& & G I +.S.S.+.Y Y +.+...XXXXq.7.{ T.P.W.I.I.S.< b J J J I S.W._.`.`.(.Q.{ 9.9.|.|...I.I.I.I.I.I.I.P.P & * 4 b J I I I ",
"0X0X0X. + N Y J.I.I.W.I.W.I.Y.W.X. .0.....I.Y.I.Y.I.I.K 3 G J J J U G.~.`.`.`.`.~.W.X... . . .W.I.I.I.I.I.L.C o 4 G J , , G J I ",
"0X0X& o B I G.Y.I.I.W.W.W.~.^.(.W.W.I.I.I.I.I.I.P.U.J.b , J J J I Y L.W.^.^./.~.I.I.I.I.W.I.W.J.J.J.L.I.+.< o n J I J J B < * b ",
"0X0X+ , I I I U S.W.^._._._._._.~.W.I.I.I.I.I.W.I.U.G.& M U I I J U S.I.I.I.I.I.I.I.I.I.I.I.D.U I I Y Y & o M J J I J J J J n < "
};
